<?xml version="1.0" encoding="UTF-8"?>
<svg width="32px" height="32px" viewBox="0 0 32 32" version="1.1" xmlns="http://www.w3.org/2000/svg" xmlns:xlink="http://www.w3.org/1999/xlink">
    <!-- Generator: Sketch 51.2 (57519) - http://www.bohemiancoding.com/sketch -->
    <title>icon_mark_x</title>
    <desc>Created with Sketch.</desc>
    <defs></defs>
    <g id="icon_mark_x" stroke="none" stroke-width="1" fill="none" fill-rule="evenodd">
        <g id="icon_mark_x_K" transform="translate(1.000000, 1.000000)" fill="#000007" fill-rule="nonzero">
            <path d="M30.11,4.29 L26,0.24 C25.8517351,0.0909967603 25.650201,0.00722526863 25.44,0.00722526863 C25.229799,0.00722526863 25.0282649,0.0909967603 24.88,0.24 L7.88,17.3 C8.26,17.58 8.64,17.84 9.03,18.1 C9.93,18.69 10.85,19.25 11.76,19.82 C12.67,20.39 13.38,20.82 14.17,21.39 L30.08,5.39 C30.3849143,5.07892519 30.3849143,4.58107481 30.08,4.27" id="Shape"></path>
            <path d="M0.23,26.15 L4.32,30.21 C4.46826495,30.3590032 4.669799,30.4427747 4.88,30.4427747 C5.090201,30.4427747 5.29173505,30.3590032 5.44,30.21 L22.44,13.14 C22.06,12.86 21.67,12.6 21.28,12.34 C20.38,11.75 19.46,11.19 18.55,10.62 C17.64,10.05 16.94,9.62 16.14,9.05 L0.24,25.05 C0.0909967603,25.1982649 0.00722526863,25.399799 0.00722526863,25.61 C0.00722526863,25.820201 0.0909967603,26.0217351 0.24,26.17" id="Shape"></path>
            <path d="M0.23,4.29 L4.32,0.24 C4.46826495,0.0909967603 4.669799,0.00722526863 4.88,0.00722526863 C5.090201,0.00722526863 5.29173505,0.0909967603 5.44,0.24 L22.44,17.3 C22.06,17.58 21.67,17.84 21.28,18.1 C20.38,18.69 19.46,19.25 18.55,19.82 C17.64,20.39 16.94,20.82 16.14,21.39 L0.24,5.39 C0.0909967603,5.24173505 0.00722526863,5.040201 0.00722526863,4.83 C0.00722526863,4.619799 0.0909967603,4.41826495 0.24,4.27" id="Shape"></path>
            <path d="M30.11,26.15 L26,30.21 C25.8517351,30.3590032 25.650201,30.4427747 25.44,30.4427747 C25.229799,30.4427747 25.0282649,30.3590032 24.88,30.21 L7.88,13.14 C8.26,12.86 8.64,12.6 9.03,12.34 C9.93,11.75 10.85,11.19 11.76,10.62 C12.67,10.05 13.38,9.62 14.17,9.05 L30.08,25.05 C30.3849143,25.3610748 30.3849143,25.8589252 30.08,26.17" id="Shape"></path>
        </g>
    </g>
</svg>