<?xml version="1.0" encoding="UTF-8"?>
<svg width="80px" height="80px" viewBox="0 0 80 80" version="1.1" xmlns="http://www.w3.org/2000/svg" xmlns:xlink="http://www.w3.org/1999/xlink">
    <!-- Generator: Sketch 51.2 (57519) - http://www.bohemiancoding.com/sketch -->
    <title>icon_train_md</title>
    <desc>Created with Sketch.</desc>
    <defs></defs>
    <g id="icon_train_md" stroke="none" stroke-width="1" fill="none" fill-rule="evenodd">
        <g id="icon_train" transform="translate(0.439560, 0.439560)">
            <path d="M62.6021978,38.6813187 C62.6025743,36.7976003 61.8472674,34.9924645 60.5054945,33.6703297 C61.1052948,31.7574127 60.8602347,29.6794434 59.8318887,27.9585377 C58.8035426,26.2376321 57.0896613,25.037373 55.1208791,24.6593407 C56.1917099,21.9999283 54.9423381,18.9721538 52.3076923,17.8417582 C49.178022,15.3494505 45.7538462,13.8857143 43.1296703,13.8857143 C41.7205334,13.8782203 40.3932313,14.5467751 39.5604396,15.6835165 C38.7350944,14.5422403 37.4128353,13.8655837 36.0043956,13.8637363 C33.367033,13.8637363 29.956044,15.3494505 26.8263736,17.8197802 C24.8918119,18.6494875 23.6357654,20.5499704 23.6307692,22.6549451 C23.6295165,23.3266556 23.7578693,23.9922996 24.0087912,24.6153846 C22.0392023,24.992346 20.3241997,26.1921643 19.2949321,27.9132072 C18.2656645,29.63425 18.0200299,31.712822 18.6197802,33.6263736 C16.1898977,36.0236388 15.832176,39.8195665 17.7714286,42.6285714 C16.6416752,44.26067 16.2542158,46.2941791 16.70465,48.2273623 C17.1550842,50.1605456 18.4014636,51.8133681 20.1362637,52.778022 C20.0973983,53.095945 20.078314,53.4159749 20.0791209,53.7362637 C20.0853541,57.1863165 22.3180294,60.2378169 25.6043956,61.2879121 C27.0591059,63.8222324 29.7922427,65.3484175 32.7129734,65.2573459 C35.633704,65.1662743 38.2664475,63.4727751 39.5604396,60.8527473 C40.8484037,63.4743621 43.475976,65.1731263 46.3952278,65.2715384 C49.3144796,65.3699505 52.0504919,63.8520003 53.5120879,61.3230769 C56.8001927,60.2745323 59.0349128,57.2226649 59.0417582,53.7714286 C59.0403716,53.4512061 59.0212949,53.1313047 58.9846154,52.8131868 C60.7194155,51.8485329 61.9657949,50.1957104 62.4162291,48.2625272 C62.8666633,46.3293439 62.4792039,44.2958348 61.3494505,42.6637363 C62.1605897,41.4909166 62.5945639,40.0985188 62.5934066,38.6725275 L62.6021978,38.6813187 Z M32.4659341,63.6 C30.1289973,63.5996708 27.987436,62.2957431 26.9142857,60.2197802 C26.8048296,60.0154229 26.6153569,59.8657554 26.3912088,59.8065934 C23.6591381,59.0657354 21.7601672,56.5889733 21.7538462,53.7582418 C21.7527644,53.3346799 21.7939947,52.9120691 21.8769231,52.4967033 C21.9562958,52.1144007 21.7587302,51.7284161 21.4021978,51.5692308 C19.4564241,50.7063694 18.2008309,48.7790597 18.1978022,46.6505495 C18.1952088,45.7004527 18.4471637,44.7670052 18.9274725,43.9472527 C20.2130197,45.0809991 21.8683546,45.7062437 23.5824176,45.7054945 C23.8944517,45.7281766 24.1929941,45.5745604 24.3559299,45.3074805 C24.5188657,45.0404006 24.5188657,44.7046544 24.3559299,44.4375745 C24.1929941,44.1704946 23.8944517,44.0168783 23.5824176,44.0395604 C21.3171424,44.0386187 19.2946928,42.6200143 18.5225255,40.4904063 C17.7503581,38.3607983 18.3936158,35.9756441 20.1318681,34.5230769 C20.4103554,34.2928451 20.5080916,33.9090082 20.3736264,33.5736264 C19.5615708,31.5620976 20.0369574,29.2596616 21.5792899,27.734246 C23.1216223,26.2088304 25.4291611,25.7588653 27.4316118,26.5930556 C29.4340624,27.427246 30.7396685,29.3823923 30.7428571,31.5516484 C30.7745944,31.9882524 31.1380682,32.3262638 31.5758242,32.3262638 C32.0135802,32.3262638 32.377054,31.9882524 32.4087912,31.5516484 C32.4160612,27.8328266 29.5269434,24.751101 25.8153846,24.5186813 C25.2858005,23.624982 25.1664969,22.5465797 25.4879258,21.5587329 C25.8093546,20.5708862 26.5404147,19.769178 27.4945055,19.3582418 C27.5443657,19.3414843 27.5928608,19.3209106 27.6395604,19.2967033 C29.3864503,18.636692 31.3483178,19.4183885 32.1626374,21.0989011 C32.3800433,21.4825876 32.8582983,21.6311176 33.2548111,21.4380938 C33.651324,21.2450699 33.829427,20.7770225 33.6615385,20.3692308 C32.9677899,18.9512255 31.6790763,17.9154219 30.1450549,17.5428571 C32.2725275,16.2241758 34.3648352,15.5120879 36.0307692,15.5120879 C37.5334693,15.5120879 38.7516484,16.730267 38.7516484,18.232967 L38.7516484,29.010989 C37.978502,28.3952895 37.0191214,28.0605138 36.0307692,28.0615385 C35.5941652,28.0932757 35.2561537,28.4567495 35.2561537,28.8945055 C35.2561537,29.3322615 35.5941652,29.6957353 36.0307692,29.7274725 C37.5334693,29.7274725 38.7516484,30.9456516 38.7516484,32.4483516 L38.7516484,52.4571429 C37.6927485,51.0866599 36.213423,50.1014723 34.5406593,49.6527473 C34.2532765,49.5742273 33.9458339,49.6549889 33.7341422,49.8646098 C33.5224505,50.0742307 33.4386708,50.3808646 33.514362,50.6690054 C33.5900532,50.9571462 33.813716,51.1830186 34.1010989,51.2615385 C37.1125538,52.0974661 39.0481078,55.0240629 38.6386781,58.1224501 C38.2292484,61.2208373 35.5999469,63.5442211 32.4747253,63.5692308 L32.4659341,63.6 Z M57.7362637,51.5912088 C57.3780064,51.7488914 57.1784145,52.1352573 57.2571429,52.5186813 C57.3415181,52.933903 57.3842208,53.3565123 57.3846154,53.7802198 C57.3743412,56.6076823 55.4761827,59.0797863 52.7472527,59.8197802 C52.5237572,59.8780617 52.3353404,60.0281565 52.2285714,60.232967 C50.8865605,62.7848692 47.9777177,64.093228 45.1779906,63.4042245 C42.3782634,62.715221 40.4088317,60.2063352 40.4043956,57.3230769 C40.4043956,57.0857143 40.4043956,56.8571429 40.3736264,56.6241758 C40.3930814,56.551004 40.4034162,56.4757077 40.4043956,56.4 L40.4043956,28.9054945 C40.4068157,27.4037981 41.6235783,26.1870355 43.1252747,26.1846154 C43.5618787,26.1528781 43.8998902,25.7894043 43.8998902,25.3516484 C43.8998902,24.9138924 43.5618787,24.5504186 43.1252747,24.5186813 C42.1369225,24.5176566 41.177542,24.8524324 40.4043956,25.4681319 L40.4043956,18.2505495 C40.4043956,16.7478494 41.6225747,15.5296703 43.1252747,15.5296703 C44.7956044,15.5296703 46.8879121,16.2637363 49.010989,17.5604396 C47.477522,17.9341293 46.1892335,18.9695912 45.4945055,20.3868132 C45.326617,20.7946049 45.50472,21.2626523 45.9012328,21.4556762 C46.2977457,21.6487 46.7760007,21.50017 46.9934066,21.1164835 C47.5924968,19.8678776 48.8568776,19.0757148 50.2417582,19.0813187 C50.6786414,19.0817618 51.1118933,19.1606702 51.5208791,19.3142857 C51.566837,19.3400371 51.6154791,19.3606732 51.6659341,19.3758242 C52.6212878,19.7853561 53.3533359,20.5873814 53.6741907,21.576052 C53.9950454,22.5647225 53.8734668,23.6437765 53.3406593,24.5362637 C49.6350884,24.7813706 46.7530295,27.8555668 46.7472527,31.5692308 C46.77899,32.0058348 47.1424638,32.3438463 47.5802198,32.3438463 C48.0179758,32.3438463 48.3814496,32.0058348 48.4131868,31.5692308 C48.4116466,29.3954592 49.7173041,27.4339612 51.7232693,26.5964717 C53.7292346,25.7589822 56.0420245,26.2097802 57.5866181,27.7393278 C59.1312118,29.2688754 59.6046271,31.5771418 58.7868132,33.5912088 C58.651342,33.925656 58.7472555,34.30931 59.0241758,34.5406593 C60.7624281,35.9932265 61.4056858,38.3783807 60.6335185,40.5079887 C59.8613512,42.6375967 57.8389015,44.0562011 55.5736264,44.0571429 C55.1370224,44.0888801 54.7990109,44.4523539 54.7990109,44.8901099 C54.7990109,45.3278659 55.1370224,45.6913397 55.5736264,45.7230769 C57.2858054,45.7192582 58.9377872,45.0909738 60.2197802,43.956044 C60.700089,44.7757964 60.952044,45.7092439 60.9494505,46.6593407 C60.9460695,48.7864807 59.6927442,50.7129519 57.7494505,51.578022 L57.7362637,51.5912088 Z" id="Shape" fill="#FFFFFF" fill-rule="nonzero"></path>
            <path d="M30.6593407,38.5538462 C30.2969513,40.2071697 28.8354198,41.3873564 27.1428571,41.3934066 C26.684036,41.3934066 26.3120879,41.7653546 26.3120879,42.2241758 C26.3120879,42.682997 26.684036,43.0549451 27.1428571,43.0549451 C29.7483329,43.0543565 31.9630514,41.1514913 32.356044,38.5758242 C33.9753238,38.4011556 35.4830702,37.6674894 36.6197802,36.5010989 C36.9029937,36.1667932 36.8797125,35.6704572 36.5664494,35.3641298 C36.2531863,35.0578025 35.7564536,35.0456377 35.4285714,35.3362637 C33.8991941,36.9034528 31.5725736,37.387379 29.5451354,36.5599911 C27.5176972,35.7326032 26.1939853,33.7589938 26.1978022,31.5692308 C26.1660649,31.1326268 25.8025912,30.7946153 25.3648352,30.7946153 C24.9270792,30.7946153 24.5636054,31.1326268 24.5318681,31.5692308 C24.528434,35.1161069 27.1666554,38.1104881 30.6857143,38.5538462 L30.6593407,38.5538462 Z" id="Shape" stroke="#FFFFFF" stroke-width="0.879120879"></path>
            <path d="M34.1846154,45.7758242 C34.1846154,45.317003 33.8126673,44.9450549 33.3538462,44.9450549 C29.4696457,44.9450549 26.3208791,48.0938215 26.3208791,51.978022 L26.3208791,52.1010989 C26.0078146,52.0568164 25.6920048,52.0347832 25.3758242,52.0351648 C24.9392202,52.0669021 24.6012087,52.4303759 24.6012087,52.8681319 C24.6012087,53.3058879 24.9392202,53.6693616 25.3758242,53.7010989 C28.3486606,53.7035227 30.7580157,56.1128779 30.7604396,59.0857143 C30.7921768,59.5223183 31.1556506,59.8603298 31.5934066,59.8603298 C32.0311626,59.8603298 32.3946364,59.5223183 32.4263736,59.0857143 C32.4258744,56.2160602 30.6882895,53.6322714 28.0307692,52.5494505 C28.0307692,52.3604396 28.0043956,52.1714286 28.0043956,51.978022 C28.0043325,49.0178598 30.3937471,46.6127383 33.3538462,46.5934066 C33.8133774,46.590988 34.1846217,46.2177794 34.1846154,45.7582418 L34.1846154,45.7758242 Z" id="Shape" stroke="#FFFFFF" stroke-width="0.879120879"></path>
            <path d="M53.7758242,40.5054945 C52.0838467,40.4977991 50.6232152,39.3183391 50.2593407,37.6659341 C53.7696758,37.212438 56.3960468,34.2208226 56.3912088,30.6813187 C56.3912088,30.2224975 56.0192607,29.8505495 55.5604396,29.8505495 C55.1016184,29.8505495 54.7296703,30.2224975 54.7296703,30.6813187 C54.7290964,32.8689397 53.4050465,34.8387809 51.3795944,35.6653582 C49.3541423,36.4919355 47.0299169,36.0109382 45.4989011,34.4483516 C45.1710189,34.1577257 44.6742862,34.1698904 44.3610231,34.4762178 C44.0477601,34.7825451 44.0244789,35.2788811 44.3076923,35.6131868 C45.4444023,36.7795773 46.9521487,37.5132435 48.5714286,37.6879121 C48.9644211,40.2635792 51.1791397,42.1664444 53.7846154,42.167033 C54.2434366,42.167033 54.6153846,41.7950849 54.6153846,41.3362637 C54.6153846,40.8774426 54.2434366,40.5054945 53.7846154,40.5054945 L53.7758242,40.5054945 Z" id="Shape" stroke="#FFFFFF" stroke-width="0.879120879"></path>
            <path d="M51.1120879,50.2725275 C50.7959073,50.2721458 50.4800974,50.294179 50.167033,50.3384615 L50.167033,50.2153846 C50.167033,46.3311842 47.0182664,43.1824176 43.1340659,43.1824176 C42.8220318,43.1597355 42.5234895,43.3133517 42.3605536,43.5804316 C42.1976178,43.8475115 42.1976178,44.1832577 42.3605536,44.4503376 C42.5234895,44.7174175 42.8220318,44.8710338 43.1340659,44.8483516 C46.1051886,44.8507711 48.5138354,47.2574518 48.5186813,50.2285714 C48.5186813,50.421978 48.5186813,50.610989 48.4879121,50.8 C45.8295989,51.8818458 44.0916048,54.466243 44.0923077,57.3362637 C44.1240449,57.7728677 44.4875187,58.1108792 44.9252747,58.1108792 C45.3630307,58.1108792 45.7265045,57.7728677 45.7582418,57.3362637 C45.7606656,54.3634273 48.1700207,51.9540722 51.1428571,51.9516484 C51.5794612,51.9199111 51.9174726,51.5564373 51.9174726,51.1186813 C51.9174726,50.6809253 51.5794612,50.3174515 51.1428571,50.2857143 L51.1120879,50.2725275 Z" id="Shape" stroke="#FFFFFF" stroke-width="0.879120879"></path>
            <path d="M30.6593407,38.5538462 C30.2969513,40.2071697 28.8354198,41.3873564 27.1428571,41.3934066 C26.684036,41.3934066 26.3120879,41.7653546 26.3120879,42.2241758 C26.3120879,42.682997 26.684036,43.0549451 27.1428571,43.0549451 C29.7483329,43.0543565 31.9630514,41.1514913 32.356044,38.5758242 C33.9753238,38.4011556 35.4830702,37.6674894 36.6197802,36.5010989 C36.9029937,36.1667932 36.8797125,35.6704572 36.5664494,35.3641298 C36.2531863,35.0578025 35.7564536,35.0456377 35.4285714,35.3362637 C33.8991941,36.9034528 31.5725736,37.387379 29.5451354,36.5599911 C27.5176972,35.7326032 26.1939853,33.7589938 26.1978022,31.5692308 C26.1660649,31.1326268 25.8025912,30.7946153 25.3648352,30.7946153 C24.9270792,30.7946153 24.5636054,31.1326268 24.5318681,31.5692308 C24.528434,35.1161069 27.1666554,38.1104881 30.6857143,38.5538462 L30.6593407,38.5538462 Z" id="Shape" fill="#FFFFFF" fill-rule="nonzero"></path>
            <path d="M34.1846154,45.7758242 C34.1846154,45.317003 33.8126673,44.9450549 33.3538462,44.9450549 C29.4696457,44.9450549 26.3208791,48.0938215 26.3208791,51.978022 L26.3208791,52.1010989 C26.0078146,52.0568164 25.6920048,52.0347832 25.3758242,52.0351648 C24.9392202,52.0669021 24.6012087,52.4303759 24.6012087,52.8681319 C24.6012087,53.3058879 24.9392202,53.6693616 25.3758242,53.7010989 C28.3486606,53.7035227 30.7580157,56.1128779 30.7604396,59.0857143 C30.7921768,59.5223183 31.1556506,59.8603298 31.5934066,59.8603298 C32.0311626,59.8603298 32.3946364,59.5223183 32.4263736,59.0857143 C32.4258744,56.2160602 30.6882895,53.6322714 28.0307692,52.5494505 C28.0307692,52.3604396 28.0043956,52.1714286 28.0043956,51.978022 C28.0043325,49.0178598 30.3937471,46.6127383 33.3538462,46.5934066 C33.8133774,46.590988 34.1846217,46.2177794 34.1846154,45.7582418 L34.1846154,45.7758242 Z" id="Shape" fill="#FFFFFF" fill-rule="nonzero"></path>
            <path d="M53.7758242,40.5054945 C52.0838467,40.4977991 50.6232152,39.3183391 50.2593407,37.6659341 C53.7696758,37.212438 56.3960468,34.2208226 56.3912088,30.6813187 C56.3912088,30.2224975 56.0192607,29.8505495 55.5604396,29.8505495 C55.1016184,29.8505495 54.7296703,30.2224975 54.7296703,30.6813187 C54.7290964,32.8689397 53.4050465,34.8387809 51.3795944,35.6653582 C49.3541423,36.4919355 47.0299169,36.0109382 45.4989011,34.4483516 C45.1710189,34.1577257 44.6742862,34.1698904 44.3610231,34.4762178 C44.0477601,34.7825451 44.0244789,35.2788811 44.3076923,35.6131868 C45.4444023,36.7795773 46.9521487,37.5132435 48.5714286,37.6879121 C48.9644211,40.2635792 51.1791397,42.1664444 53.7846154,42.167033 C54.2434366,42.167033 54.6153846,41.7950849 54.6153846,41.3362637 C54.6153846,40.8774426 54.2434366,40.5054945 53.7846154,40.5054945 L53.7758242,40.5054945 Z" id="Shape" fill="#FFFFFF" fill-rule="nonzero"></path>
            <path d="M51.1120879,50.2725275 C50.7959073,50.2721458 50.4800974,50.294179 50.167033,50.3384615 L50.167033,50.2153846 C50.167033,46.3311842 47.0182664,43.1824176 43.1340659,43.1824176 C42.8220318,43.1597355 42.5234895,43.3133517 42.3605536,43.5804316 C42.1976178,43.8475115 42.1976178,44.1832577 42.3605536,44.4503376 C42.5234895,44.7174175 42.8220318,44.8710338 43.1340659,44.8483516 C46.1051886,44.8507711 48.5138354,47.2574518 48.5186813,50.2285714 C48.5186813,50.421978 48.5186813,50.610989 48.4879121,50.8 C45.8295989,51.8818458 44.0916048,54.466243 44.0923077,57.3362637 C44.1240449,57.7728677 44.4875187,58.1108792 44.9252747,58.1108792 C45.3630307,58.1108792 45.7265045,57.7728677 45.7582418,57.3362637 C45.7606656,54.3634273 48.1700207,51.9540722 51.1428571,51.9516484 C51.5794612,51.9199111 51.9174726,51.5564373 51.9174726,51.1186813 C51.9174726,50.6809253 51.5794612,50.3174515 51.1428571,50.2857143 L51.1120879,50.2725275 Z" id="Shape" fill="#FFFFFF" fill-rule="nonzero"></path>
            <path d="M39.6527473,79.1208791 C61.5013747,79.1208791 79.2131868,61.409067 79.2131868,39.5604396 C79.2131868,17.7118121 61.5013747,0 39.6527473,0 C17.8041198,0 0.0923076923,17.7118121 0.0923076923,39.5604396 C0.0923076923,61.409067 17.8041198,79.1208791 39.6527473,79.1208791 Z" id="Shape" stroke="#FFFFFF" stroke-width="0.879120879"></path>
        </g>
    </g>
</svg>