<?xml version="1.0" encoding="UTF-8"?>
<svg width="182px" height="182px" viewBox="0 0 182 182" version="1.1" xmlns="http://www.w3.org/2000/svg" xmlns:xlink="http://www.w3.org/1999/xlink">
    <!-- Generator: Sketch 51.2 (57519) - http://www.bohemiancoding.com/sketch -->
    <title>icon_vocab</title>
    <desc>Created with Sketch.</desc>
    <defs></defs>
    <g id="icon_vocab" stroke="none" stroke-width="1" fill="none" fill-rule="evenodd">
        <g transform="translate(0.000000, 1.000000)" id="Shape">
            <path d="M90.74,180 C140.445627,180 180.74,139.705627 180.74,90 C180.74,40.2943725 140.445627,0 90.74,0 C41.0343725,0 0.74,40.2943725 0.74,90 C0.74,139.705627 41.0343725,180 90.74,180 Z" stroke="#FFFFFF" stroke-width="2"></path>
            <path d="M76.46,96.66 C76.0240123,95.4515937 75.1199696,94.4695445 73.9516927,93.93526 C72.7834157,93.4009755 71.4492537,93.3594336 70.25,93.82 C67.8050774,94.7805875 66.5460129,97.4924188 67.39,99.98 C70.73,109.46 75.98,115.63 79.8,118.47 C80.8659752,119.201026 82.1851033,119.462914 83.4494911,119.194539 C84.7138789,118.926164 85.812887,118.151009 86.49,117.05 C87.92,115.15 87.44,112.31 85.49,110.41 C81.2011891,106.799688 78.0507507,102.023665 76.42,96.66 L76.46,96.66 Z" fill="#FFFFFF" fill-rule="nonzero"></path>
            <path d="M136.62,57.53 C137.653512,55.1575073 136.588571,52.3948996 134.23,51.33 C119.686796,44.5541925 102.378071,49.1912107 93.17,62.33 C91.74,55.64 88.87,48.01 82.17,44.66 C81.1048888,43.9253166 79.7835747,43.6633086 78.5187128,43.9359734 C77.253851,44.2086383 76.1578317,44.9917481 75.49,46.1 C74.8314758,47.2334199 74.6629814,48.5861608 75.0233453,49.8464911 C75.3837092,51.1068214 76.241845,52.1660199 77.4,52.78 C81.69,55.17 83.6,61.37 84.08,66.63 C77.4,62.81 70.23,61.85 63.55,64.24 C48.27,69.97 42.55,86.24 49.23,105.78 C54,119.62 63.55,132.03 73.58,136.78 C79.78,139.64 85.51,139.64 89.33,137.78 C94.5063939,139.562367 100.180402,139.202341 105.09,136.78 C115.09,132 124.66,120.07 129.44,105.78 C134.21,91.45 132.78,79.04 125.62,70.92 C130.507033,67.6258926 134.329247,62.9801645 136.62,57.55 L136.62,57.53 Z M125.16,58.53 C119.466504,65.989249 109.99596,69.5168811 100.81,67.6 C106.608401,60.2836819 115.988204,56.78985 125.16,58.53 Z M120.38,102.93 C116.57,114.39 108.45,124.42 100.81,128.23 C97.94,129.67 95.08,130.14 92.69,129.23 C87.92,127.32 89.35,127.8 85.53,129.23 C83.14,130.18 80.28,129.71 77.42,128.23 C69.78,124.42 62.14,114.39 57.84,102.93 C53.07,88.13 56.41,77.15 66.91,73.33 C72.64,70.94 80.28,73.81 86.01,80.49 C86.915561,81.518452 88.2196883,82.1077786 89.59,82.1077786 C90.9603117,82.1077786 92.264439,81.518452 93.17,80.49 C94.6,79.06 96.04,77.63 96.99,76.67 C103.610014,78.1722976 110.49946,78.0073633 117.04,76.19 C123.25,80.97 124.68,91 120.38,102.93 Z" fill="#FFFFFF" fill-rule="nonzero"></path>
        </g>
    </g>
</svg>