<?xml version="1.0" encoding="UTF-8"?>
<svg width="48px" height="48px" viewBox="0 0 48 48" version="1.1" xmlns="http://www.w3.org/2000/svg" xmlns:xlink="http://www.w3.org/1999/xlink">
    <!-- Generator: Sketch 51.2 (57519) - http://www.bohemiancoding.com/sketch -->
    <title>icon_phone</title>
    <desc>Created with Sketch.</desc>
    <defs></defs>
    <g id="icon_phone" stroke="none" stroke-width="1" fill="none" fill-rule="evenodd">
        <g id="icon_phone_W" fill="#FFFFFF" fill-rule="nonzero">
            <path d="M39.8769231,27.8846053 C39.1015385,27.1053947 36.2953846,24.8481579 32.72,28.4411842 L31.3353846,29.8326316 C30.5723077,29.7955263 27.8338462,29.2142105 22.5907692,23.9576316 C17.3476923,18.7010526 17.1692308,16.3325 17.2123077,15.8253947 L18.6892308,14.3411842 C19.5638912,13.5352021 20.2185412,12.5175105 20.5907692,11.3851316 C20.8676923,10.34 20.8553846,8.76302632 19.2492308,7.14894737 L14.2338462,2.10881579 C12.7323077,0.599868421 10.2707692,-0.531842105 7.08307692,2.67157895 L0.929230769,8.85578947 C0.70168003,9.08636207 0.583000736,9.40365166 0.603076923,9.72776316 C0.603076923,10.0617105 1.32307692,18.1197368 14.8676923,31.7311842 C28.4123077,45.3426316 36.8984615,46.5732895 37.2553846,46.6165789 L37.4030769,46.6165789 C37.6985044,46.6166238 37.9818482,46.4987229 38.1907692,46.2888158 L44.3446154,40.1046053 C47.92,36.5115789 45.6738462,33.6977632 44.8984615,32.9185526 L39.8769231,27.8846053 Z M42.7446154,38.5276316 L37.04,44.2603947 C35.0646154,43.7594737 27.5076923,41.2363158 16.4430769,30.1232895 C5.37846154,19.0102632 3.29846154,11.8489474 2.92307692,10.0122368 L8.65230769,4.24236842 C10.5476923,2.34381579 11.6184615,2.64684211 12.6523077,3.67960526 L17.6676923,8.72592105 C18.5969231,9.65355263 18.5476923,10.3523684 18.4307692,10.7914474 C18.1646406,11.543204 17.7112438,12.2138801 17.1138462,12.7394737 L15.44,14.4215789 C15.3821428,14.4798594 15.3305745,14.5441196 15.2861538,14.6132895 C14.8184615,15.3492105 13.8461538,18.3238158 21.0153846,25.5346053 C28.1846154,32.7453947 31.5876923,32.1640789 32.1846154,31.9661842 C32.3512883,31.9111985 32.5029687,31.8180476 32.6276923,31.6940789 L34.3015385,30.0119737 C35.2,29.1152632 36.0246154,28.6885526 36.7630769,28.6947368 C37.348216,28.7424708 37.8925708,29.0148838 38.2830769,29.4553947 L43.2984615,34.4955263 C44.4738462,35.6705263 44.2892308,37.0186842 42.7446154,38.5276316 Z" id="Shape"></path>
            <path d="M44.4923077,3.42605263 L29.7230769,3.42605263 C27.7482003,3.49662162 26.1976946,5.15130081 26.2461538,7.13657895 L26.2461538,13.6980263 C26.1976946,15.6833045 27.7482003,17.3379836 29.7230769,17.4085526 L31.2615385,17.4085526 L31.2615385,20.7727632 C31.2606904,21.2259063 31.5332646,21.6343394 31.9507692,21.8055263 C32.084577,21.8643817 32.229332,21.8938972 32.3753846,21.8921053 C32.6712195,21.8942288 32.95533,21.7760088 33.1630769,21.5643421 L37.2984615,17.4085526 L44.5046154,17.4085526 C46.4804366,17.3379892 48.0327248,15.6843346 47.9876923,13.6980263 L47.9876923,7.1675 C48.0498515,5.16461341 46.4853155,3.48993968 44.4923077,3.42605263 Z M45.7230769,13.6980263 C45.7808286,14.4485704 45.2366773,15.1102423 44.4923077,15.1946053 L36.8246154,15.1946053 C36.5291879,15.1945604 36.2458441,15.3124613 36.0369231,15.5223684 L33.4769231,18.095 L33.4769231,16.3139474 C33.4769231,16.0170794 33.3595718,15.7323703 33.1506851,15.522453 C32.9417984,15.3125356 32.6584873,15.1946053 32.3630769,15.1946053 L29.7107692,15.1946053 C28.9647468,15.113318 28.4189311,14.4496223 28.48,13.6980263 L28.48,7.1675 C28.4189311,6.41590398 28.9647468,5.75220828 29.7107692,5.67092105 L44.48,5.67092105 C45.2243696,5.75528406 45.7685209,6.41695592 45.7107692,7.1675 L45.7230769,13.6980263 Z" id="Shape"></path>
            <path d="M32.4184615,9.59171053 L31.8030769,9.59171053 C31.1879167,9.59171056 30.6892308,10.0928571 30.6892308,10.7110526 C30.6892308,11.3292482 31.1879167,11.8303947 31.8030769,11.8303947 L32.4184615,11.8303947 C33.0336218,11.8303947 33.5323076,11.3292482 33.5323076,10.7110526 C33.5323076,10.0928571 33.0336218,9.59171056 32.4184615,9.59171053 Z" id="Shape"></path>
            <path d="M37.3846154,9.59171053 L36.8246154,9.59171053 C36.2094552,9.59171056 35.7107693,10.0928571 35.7107693,10.7110526 C35.7107693,11.3292482 36.2094552,11.8303947 36.8246154,11.8303947 L37.3846154,11.8303947 C37.9997756,11.8303947 38.4984615,11.3292482 38.4984615,10.7110526 C38.4984615,10.0928571 37.9997756,9.59171056 37.3846154,9.59171053 Z" id="Shape"></path>
            <path d="M42.4,9.59171053 L41.84,9.59171053 C41.2248398,9.59171056 40.7261539,10.0928571 40.7261539,10.7110526 C40.7261539,11.3292482 41.2248398,11.8303947 41.84,11.8303947 L42.4,11.8303947 C43.0151602,11.8303947 43.5138461,11.3292482 43.5138461,10.7110526 C43.5138461,10.0928571 43.0151602,9.59171056 42.4,9.59171053 Z" id="Shape"></path>
        </g>
    </g>
</svg>