<?xml version="1.0" encoding="UTF-8"?>
<svg width="182px" height="182px" viewBox="0 0 182 182" version="1.1" xmlns="http://www.w3.org/2000/svg" xmlns:xlink="http://www.w3.org/1999/xlink">
    <!-- Generator: Sketch 51.2 (57519) - http://www.bohemiancoding.com/sketch -->
    <title>icon_target_color</title>
    <desc>Created with Sketch.</desc>
    <defs></defs>
    <g id="icon_target_color" stroke="none" stroke-width="1" fill="none" fill-rule="evenodd">
        <g id="icon_target" transform="translate(1.000000, 1.000000)">
            <path d="M90,180 C139.705627,180 180,139.705627 180,90 C180,40.2943725 139.705627,0 90,0 C40.2943725,0 0,40.2943725 0,90 C0,139.705627 40.2943725,180 90,180 Z" id="Shape" stroke="#FFFFFF" stroke-width="2" fill="#F47920"></path>
            <path d="M62.13,93.1 C62.13,109.1 74.79,122.1 90.41,122.1 C106.03,122.1 118.69,109.1 118.69,93.1 C118.698878,88.8692163 117.791413,84.6866912 116.03,80.84 L108.69,88.36 C109.077697,89.910104 109.272505,91.5021497 109.27,93.1 C109.028345,103.455368 100.480444,111.677916 90.1234956,111.517744 C79.766547,111.357573 71.4769987,102.874631 71.5556774,92.5167427 C71.634356,82.1588544 80.0518133,73.8028193 90.41,73.8 C91.975284,73.8013813 93.5341813,73.9996031 95.05,74.39 L102.39,66.88 C98.6472489,65.0761527 94.5447563,64.1428357 90.39,64.15 C74.77,64.15 62.11,77.15 62.11,93.1 L62.13,93.1 Z" id="Shape" fill="#000000" fill-rule="nonzero"></path>
            <path d="M129.69,52.89 L129.69,38 L116.53,51.47 L113.6,63.6 L93.6,84.05 C92.5734851,83.6644205 91.4865322,83.4646379 90.39,83.46 C86.4681566,83.370567 82.8824615,85.6641639 81.3192612,89.2621159 C79.7560609,92.8600679 80.5264833,97.046265 83.2682001,99.8519454 C86.0099168,102.657626 90.1772367,103.524368 93.810276,102.044544 C97.4433153,100.564719 99.8189804,97.0328628 99.82,93.11 C99.8170919,91.9922789 99.6243507,90.8831716 99.25,89.83 L119.25,69.37 L131.09,66.37 L144.25,52.9 L129.69,52.89 Z" id="Shape" fill="#000000" fill-rule="nonzero"></path>
            <polygon id="Shape" fill="#000000" fill-rule="nonzero" points="132.65 72.96 123.82 75.2 132.65 72.96"></polygon>
            <path d="M132.65,73 L123.82,75.24 C126.654643,80.7804694 128.128662,86.9165018 128.12,93.14 C128.12,114.46 111.24,131.74 90.41,131.74 C69.58,131.74 52.7,114.46 52.7,93.14 C52.7,71.82 69.59,54.54 90.41,54.54 C96.5186905,54.5367739 102.532363,56.0522194 107.91,58.95 L110.09,49.95 L110.22,49.4 C104.032136,46.4527865 97.2638827,44.9255734 90.41,44.93 C64.41,44.93 43.28,66.54 43.28,93.18 C43.28,119.82 64.38,141.43 90.41,141.43 C116.44,141.43 137.55,119.83 137.55,93.18 C137.559424,86.1885941 136.069245,79.2764832 133.18,72.91 L132.65,73.04 L132.65,73 Z" id="Shape" fill="#000000" fill-rule="nonzero"></path>
        </g>
    </g>
</svg>