<?xml version="1.0" encoding="UTF-8"?>
<svg width="80px" height="80px" viewBox="0 0 80 80" version="1.1" xmlns="http://www.w3.org/2000/svg" xmlns:xlink="http://www.w3.org/1999/xlink">
    <!-- Generator: Sketch 51.2 (57519) - http://www.bohemiancoding.com/sketch -->
    <title>icon_target_md_color</title>
    <desc>Created with Sketch.</desc>
    <defs></defs>
    <g id="icon_target_md_color" stroke="none" stroke-width="1" fill="none" fill-rule="evenodd">
        <g id="icon_target" transform="translate(0.439560, 0.439560)">
            <path d="M39.5604396,79.1208791 C61.409067,79.1208791 79.1208791,61.409067 79.1208791,39.5604396 C79.1208791,17.7118121 61.409067,0 39.5604396,0 C17.7118121,0 0,17.7118121 0,39.5604396 C0,61.409067 17.7118121,79.1208791 39.5604396,79.1208791 Z" id="Shape" stroke="#FFFFFF" stroke-width="0.879120879" fill="#F47920"></path>
            <path d="M27.3098901,40.9230769 C27.3098901,47.956044 32.8747253,53.6703297 39.7406593,53.6703297 C46.6065934,53.6703297 52.1714286,47.956044 52.1714286,40.9230769 C52.1753309,39.0633918 51.7764453,37.2249192 51.0021978,35.5340659 L47.7758242,38.8395604 C47.9462406,39.5209249 48.0318702,40.2207252 48.0307692,40.9230769 C47.9245473,45.4748869 44.1672282,49.0891938 39.6147233,49.0187887 C35.0622184,48.9483836 31.418461,45.219618 31.453045,40.6667001 C31.487629,36.1137822 35.1876102,32.4407997 39.7406593,32.4395604 C40.4286963,32.4401676 41.1139258,32.5272981 41.7802198,32.6989011 L45.0065934,29.3978022 C43.3614281,28.6049023 41.5581346,28.194653 39.7318681,28.1978022 C32.8659341,28.1978022 27.3010989,33.9120879 27.3010989,40.9230769 L27.3098901,40.9230769 Z" id="Shape" fill="#000000" fill-rule="nonzero"></path>
            <path d="M57.0065934,23.2483516 L57.0065934,16.7032967 L51.221978,22.6241758 L49.9340659,27.956044 L41.1428571,36.9450549 C40.6916418,36.7755695 40.2138603,36.6877529 39.7318681,36.6857143 C38.0079809,36.6464031 36.4318512,37.6545775 35.7447302,39.2360949 C35.0576092,40.8176123 35.3962564,42.6576989 36.6014066,43.890965 C37.8065569,45.1242312 39.6383458,45.5052166 41.2352862,44.8547444 C42.8322265,44.2042723 43.8764749,42.6518078 43.8769231,40.9274725 C43.8756448,40.4361666 43.7909234,39.9486469 43.6263736,39.4857143 L52.4175824,30.4923077 L57.621978,29.1736264 L63.4065934,23.2527473 L57.0065934,23.2483516 Z" id="Shape" fill="#000000" fill-rule="nonzero"></path>
            <polygon id="Shape" fill="#000000" fill-rule="nonzero" points="58.3076923 32.0703297 54.4263736 33.0549451 58.3076923 32.0703297"></polygon>
            <path d="M58.3076923,32.0879121 L54.4263736,33.0725275 C55.6723708,35.5078986 56.3202912,38.2050557 56.3164835,40.9406593 C56.3164835,50.3120879 48.8967033,57.9076923 39.7406593,57.9076923 C30.5846154,57.9076923 23.1648352,50.3120879 23.1648352,40.9406593 C23.1648352,31.5692308 30.589011,23.9736264 39.7406593,23.9736264 C42.425798,23.9722083 45.0691707,24.6383382 47.432967,25.9120879 L48.3912088,21.956044 L48.4483516,21.7142857 C45.7284115,20.4188073 42.753355,19.7475048 39.7406593,19.7494505 C28.3120879,19.7494505 19.0241758,29.2483516 19.0241758,40.9582418 C19.0241758,52.6681319 28.2989011,62.167033 39.7406593,62.167033 C51.1824176,62.167033 60.4615385,52.6725275 60.4615385,40.9582418 C60.4656808,37.8850963 59.8106572,34.8468058 58.5406593,32.0483516 L58.3076923,32.1054945 L58.3076923,32.0879121 Z" id="Shape" fill="#000000" fill-rule="nonzero"></path>
        </g>
    </g>
</svg>