<?xml version="1.0" encoding="UTF-8"?>
<svg width="96px" height="48px" viewBox="0 -6 96 48" version="1.1" xmlns="http://www.w3.org/2000/svg" xmlns:xlink="http://www.w3.org/1999/xlink">
    <!-- Generator: Sketch 51.2 (57519) - http://www.bohemiancoding.com/sketch -->
    <title>icon_eye</title>
    <desc>Created with Sketch.</desc>
    <defs></defs>
    <g id="icon_eye" stroke="none" stroke-width="1" fill="none" fill-rule="evenodd">
        <g id="icon_eye_W" fill-rule="nonzero">
            <path d="M32,7.2626087 C25.8528306,7.2626087 20.8695652,12.2458741 20.8695652,18.3930435 C20.8695652,24.5402129 25.8528306,29.5234783 32,29.5234783 C38.1471694,29.5234783 43.1304348,24.5402129 43.1304348,18.3930435 C43.107547,12.2553795 38.137664,7.28549643 32,7.2626087 Z M32,27.5686957 C26.9477952,27.5686957 22.8521739,23.4730744 22.8521739,18.4208696 C22.8521739,13.3686647 26.9477952,9.27304348 32,9.27304348 C37.0522048,9.27304348 41.1478261,13.3686647 41.1478261,18.4208696 C41.1401644,23.4698974 37.0490279,27.561034 32,27.5686957 Z" id="Shape"></path>
            <circle id="Oval" cx="32" cy="18.4208696" r="4.42434783"></circle>
            <path d="M44.48,8.61217391 C49.0288798,14.3654072 49.0288798,22.490245 44.48,28.2434783 C49.4042805,25.7118095 53.8827617,22.394068 57.7391304,18.4208696 C53.8737126,14.4617769 49.3968676,11.1499451 44.48,8.61217391 Z" id="Shape"></path>
            <path d="M16.1182609,18.4208696 C16.1145498,14.8548346 17.3184773,11.3926237 19.533913,8.59826087 C14.605291,11.1296005 10.1221761,14.4472935 6.26086957,18.4208696 C10.1128696,22.3772617 14.5755425,25.6890347 19.4782609,28.2295652 C17.2837964,25.4326697 16.099655,21.9758594 16.1182609,18.4208696 Z" id="Shape"></path>
            <path d="M62.7478261,16.8973913 C62.1913043,16.2365217 48.8904348,0.68173913 32,0.68173913 C15.1095652,0.68173913 1.80869565,16.2365217 1.25217391,16.8973913 C0.507977311,17.7767201 0.507977311,19.065019 1.25217391,19.9443478 C1.80869565,20.6052174 15.1095652,36.16 32,36.16 C48.8904348,36.16 62.1913043,20.6191304 62.7478261,19.9582609 C63.4999035,19.0765641 63.4999035,17.7790881 62.7478261,16.8973913 Z M32,29.5791304 C25.8528306,29.5791304 20.8695652,24.595865 20.8695652,18.4486957 C20.8695652,12.3015263 25.8528306,7.31826087 32,7.31826087 C38.1471694,7.31826087 43.1304348,12.3015263 43.1304348,18.4486957 C43.107547,24.5863596 38.137664,29.5562427 32,29.5791304 Z M6.26086957,18.4486957 C10.1053729,14.4799938 14.56937,11.1625392 19.4782609,8.62608696 C14.9293811,14.3793202 14.9293811,22.504158 19.4782609,28.2573913 C14.573572,25.7084118 10.1107829,22.3871571 6.26086957,18.4208696 L6.26086957,18.4486957 Z M44.466087,28.2434783 C49.0098752,22.4884763 49.0098752,14.3671759 44.466087,8.61217391 C49.3681658,11.1537284 53.8306834,14.4653863 57.6834783,18.4208696 C53.838975,22.3895714 49.3749779,25.7070261 44.466087,28.2434783 Z" id="Shape" fill="#FFFFFF"></path>
            <path d="M32,9.27304348 C26.9477952,9.27304348 22.8521739,13.3686647 22.8521739,18.4208696 C22.8521739,23.4730744 26.9477952,27.5686957 32,27.5686957 C37.0522048,27.5686957 41.1478261,23.4730744 41.1478261,18.4208696 C41.1401644,13.3718417 37.0490279,9.28070514 32,9.27304348 Z M32,22.8452174 C29.5565002,22.8452174 27.5756522,20.8643694 27.5756522,18.4208696 C27.5756522,15.9773697 29.5565002,13.9965217 32,13.9965217 C34.4434998,13.9965217 36.4243478,15.9773697 36.4243478,18.4208696 C36.4243478,20.8643694 34.4434998,22.8452174 32,22.8452174 Z" id="Shape" fill="#FFFFFF"></path>
        </g>
    </g>
</svg>