<?xml version="1.0" encoding="UTF-8"?>
<svg width="48px" height="48px" viewBox="0 0 48 48" version="1.1" xmlns="http://www.w3.org/2000/svg" xmlns:xlink="http://www.w3.org/1999/xlink">
    <!-- Generator: Sketch 51.2 (57519) - http://www.bohemiancoding.com/sketch -->
    <title>icon_email</title>
    <desc>Created with Sketch.</desc>
    <defs></defs>
    <g id="icon_email" stroke="none" stroke-width="1" fill="none" fill-rule="evenodd">
        <g id="icon_email_W" transform="translate(0.000000, 9.000000)" fill="#FFFFFF" fill-rule="nonzero">
            <path d="M1.55294118,0 C0.71086937,3.94745964e-15 0.0282352941,0.671572875 0.0282352941,1.5 L0.0282352941,28.5 C0.0282352941,29.3284271 0.71086937,30 1.55294118,30 L46.2776471,30 C47.1197189,30 47.8023529,29.3284271 47.8023529,28.5 L47.8023529,1.52777778 C47.8023529,0.699350653 47.1197189,0.0277777778 46.2776471,0.0277777778 L1.55294118,0 Z M5.74870588,3 L42.0875294,3 L23.8870588,18.0333333 L5.74870588,3 Z M3.07764706,4.71666667 L14.9590588,14.5777778 L3.04941176,25.1333333 L3.07764706,4.71666667 Z M44.7529412,4.71666667 L44.7529412,25.1222222 L32.8432941,14.5666667 L44.7529412,4.71666667 Z M17.3251765,16.5277778 L22.9044706,21.1333333 C23.471312,21.6063238 24.3028056,21.6063238 24.8696471,21.1333333 L30.4489412,16.5277778 L42.3077647,26.9944444 L5.50588235,26.9944444 L17.3251765,16.5277778 Z" id="Shape"></path>
        </g>
    </g>
</svg>