<?xml version="1.0" encoding="UTF-8"?>
<svg width="182px" height="182px" viewBox="0 0 182 182" version="1.1" xmlns="http://www.w3.org/2000/svg" xmlns:xlink="http://www.w3.org/1999/xlink">
    <!-- Generator: Sketch 51.2 (57519) - http://www.bohemiancoding.com/sketch -->
    <title>icon_train_color</title>
    <desc>Created with Sketch.</desc>
    <defs></defs>
    <g id="icon_train_color" stroke="none" stroke-width="1" fill="none" fill-rule="evenodd">
        <g id="icon_train" transform="translate(1.000000, 1.000000)">
            <path d="M90.21,180 C139.915627,180 180.21,139.705627 180.21,90 C180.21,40.2943725 139.915627,0 90.21,0 C40.5043725,0 0.21,40.2943725 0.21,90 C0.21,139.705627 40.5043725,180 90.21,180 Z" id="Shape" stroke="#FFFFFF" stroke-width="2" fill="#EC008C"></path>
            <path d="M142.42,88 C142.420856,83.7145406 140.702533,79.6078568 137.65,76.6 C139.014546,72.2481139 138.457034,67.5207336 136.117547,63.6056733 C133.778059,59.690613 129.87898,56.9600235 125.4,56.1 C127.83614,50.0498369 124.993819,43.1616499 119,40.59 C111.88,34.92 104.09,31.59 98.12,31.59 C94.9142135,31.5729511 91.8946013,33.0939134 90,35.68 C88.1223397,33.0835968 85.1142004,31.5442029 81.91,31.54 C75.91,31.54 68.15,34.92 61.03,40.54 C56.6288721,42.427584 53.7713664,46.7511827 53.76,51.54 C53.75715,53.0681416 54.0491528,54.5824816 54.62,56 C50.1391853,56.8575872 46.2375544,59.5871738 43.8959706,63.5025463 C41.5543868,67.4179188 40.9955679,72.1466701 42.36,76.5 C36.8320172,81.9537783 36.0182004,90.5895137 40.43,96.98 C37.859811,100.693024 36.978341,105.319257 38.0030788,109.717249 C39.0278167,114.115241 41.8633298,117.875412 45.81,120.07 C45.7215812,120.793275 45.6781643,121.521343 45.68,122.25 C45.6941806,130.09887 50.7735168,137.041034 58.25,139.43 C61.559466,145.195579 67.7773521,148.66765 74.4220144,148.460462 C81.0666767,148.253274 87.0561681,144.400563 90,138.44 C92.9301183,144.404174 98.9078454,148.268862 105.549143,148.49275 C112.190441,148.716637 118.414869,145.263301 121.74,139.51 C129.220438,137.124561 134.304427,130.181563 134.32,122.33 C134.316845,121.601494 134.273446,120.873718 134.19,120.15 C138.13667,117.955412 140.972183,114.195241 141.996921,109.797249 C143.021659,105.399257 142.140189,100.773024 139.57,97.06 C141.415342,94.3918353 142.402633,91.2241303 142.4,87.98 L142.42,88 Z M73.86,144.69 C68.5434689,144.689251 63.6714168,141.722816 61.23,137 C60.9809874,136.535087 60.5499371,136.194594 60.04,136.06 C53.8245391,134.374548 49.5043803,128.739914 49.49,122.3 C49.487539,121.336397 49.581338,120.374957 49.77,119.43 C49.9505729,118.560261 49.5011112,117.682147 48.69,117.32 C44.2633648,115.35699 41.4068903,110.972361 41.4,106.13 C41.3941,103.96853 41.9672975,101.844937 43.06,99.98 C45.9846199,102.559273 49.7505067,103.981704 53.65,103.98 C54.3598776,104.031602 55.0390615,103.682125 55.4097405,103.074518 C55.7804195,102.466911 55.7804195,101.703089 55.4097405,101.095482 C55.0390615,100.487875 54.3598776,100.138398 53.65,100.19 C48.496499,100.187858 43.8954261,96.9605324 42.1387454,92.1156743 C40.3820647,87.2708162 41.845476,81.8445903 45.8,78.54 C46.4335585,78.0162225 46.6559085,77.1429936 46.35,76.38 C44.5025736,71.8037721 45.5840781,66.5657301 49.0928844,63.0954097 C52.6016908,59.6250892 57.8513416,58.6014185 62.4069168,60.4992016 C66.962492,62.3969847 69.9327459,66.8449424 69.94,71.78 C70.0122023,72.7732741 70.8391051,73.5422502 71.835,73.5422502 C72.8308949,73.5422502 73.6577977,72.7732741 73.73,71.78 C73.7465392,63.3196806 67.1737963,56.3087548 58.73,55.78 C57.5251961,53.7468341 57.2537805,51.2934689 57.9850311,49.0461174 C58.7162817,46.798766 60.3794435,44.9748799 62.55,44.04 C62.6634319,44.0018768 62.7737584,43.9550717 62.88,43.9 C66.8541743,42.3984744 71.3174229,44.1768339 73.17,48 C73.6645984,48.8728868 74.7526286,49.2107926 75.6546953,48.7716633 C76.5567621,48.332534 76.9619463,47.2677262 76.58,46.34 C75.0017221,43.1140379 72.0698986,40.7575848 68.58,39.91 C73.42,36.91 78.18,35.29 81.97,35.29 C85.3886426,35.29 88.16,38.0613574 88.16,41.48 L88.16,66 C86.401092,64.5992837 84.2185013,63.8376689 81.97,63.84 C80.9767259,63.9122023 80.2077498,64.7391051 80.2077498,65.735 C80.2077498,66.7308949 80.9767259,67.5577977 81.97,67.63 C85.3886426,67.63 88.16,70.4013574 88.16,73.82 L88.16,119.34 C85.7510029,116.222151 82.3855373,113.980849 78.58,112.96 C77.926204,112.781367 77.2267721,112.9651 76.7451735,113.441987 C76.263575,113.918875 76.072976,114.616467 76.2451735,115.271987 C76.417371,115.927508 76.926204,116.441367 77.58,116.62 C84.43106,118.521735 88.8344453,125.179743 87.9029927,132.228574 C86.97154,139.277405 80.9898793,144.563103 73.88,144.62 L73.86,144.69 Z M131.35,117.37 C130.534965,117.728728 130.080893,118.60771 130.26,119.48 C130.451954,120.424629 130.549102,121.386065 130.55,122.35 C130.526626,128.782477 126.208316,134.406514 120,136.09 C119.491548,136.22259 119.062899,136.564056 118.82,137.03 C115.766925,142.835577 109.149308,145.812094 102.779929,144.244611 C96.4105492,142.677128 91.9300922,136.969413 91.92,130.41 C91.92,129.87 91.92,129.35 91.85,128.82 C91.8942603,128.653534 91.9177719,128.482235 91.92,128.31 L91.92,65.76 C91.9255058,62.3436406 94.6936406,59.5755058 98.11,59.57 C99.1032741,59.4977977 99.8722502,58.6708949 99.8722502,57.675 C99.8722502,56.6791051 99.1032741,55.8522023 98.11,55.78 C95.8614987,55.7776689 93.678908,56.5392837 91.92,57.94 L91.92,41.52 C91.92,38.1013574 94.6913574,35.33 98.11,35.33 C101.91,35.33 106.67,37 111.5,39.95 C108.011362,40.8001442 105.080506,43.15582 103.5,46.38 C103.118054,47.3077262 103.523238,48.372534 104.425305,48.8116633 C105.327371,49.2507926 106.415402,48.9128868 106.91,48.04 C108.27293,45.1994216 111.149397,43.3972512 114.3,43.41 C115.293909,43.4110081 116.279557,43.5905248 117.21,43.94 C117.314554,43.9985844 117.425215,44.0455315 117.54,44.08 C119.71343,45.0116852 121.378839,46.8362927 122.108784,49.0855182 C122.838728,51.3347437 122.562137,53.7895916 121.35,55.82 C112.919826,56.3776181 106.363142,63.3714145 106.35,71.82 C106.422202,72.8132741 107.249105,73.5822502 108.245,73.5822502 C109.240895,73.5822502 110.067798,72.8132741 110.14,71.82 C110.136496,66.8746697 113.106867,62.4122617 117.670438,60.5069731 C122.234009,58.6016845 127.495606,59.6272501 131.009556,63.1069708 C134.523507,66.5866915 135.600527,71.8379977 133.74,76.42 C133.431803,77.1808674 133.650006,78.0536803 134.28,78.58 C138.234524,81.8845903 139.697935,87.3108162 137.941255,92.1556743 C136.184574,97.0005324 131.583501,100.227858 126.43,100.23 C125.436726,100.302202 124.66775,101.129105 124.66775,102.125 C124.66775,103.120895 125.436726,103.947798 126.43,104.02 C130.325207,104.011312 134.083466,102.581965 137,100 C138.092703,101.864937 138.6659,103.98853 138.66,106.15 C138.652308,110.989244 135.800993,115.371966 131.38,117.34 L131.35,117.37 Z" id="Shape" fill="#000000" fill-rule="nonzero"></path>
            <path d="M69.75,87.71 C68.9255643,91.4713111 65.60058,94.1562359 61.75,94.17 C60.7061818,94.17 59.86,95.0161818 59.86,96.06 C59.86,97.1038182 60.7061818,97.95 61.75,97.95 C67.6774572,97.9486611 72.715942,93.6196426 73.61,87.76 C77.2938617,87.3626291 80.7239847,85.6935383 83.31,83.04 C83.9543106,82.2794544 83.9013459,81.1502901 83.1886724,80.4533954 C82.4759989,79.7565007 81.3459319,79.7288259 80.6,80.39 C77.1206665,83.955355 71.827605,85.0562873 67.215183,83.1739798 C62.602761,81.2916724 59.5913166,76.8017108 59.6,71.82 C59.5277977,70.8267259 58.7008949,70.0577498 57.705,70.0577498 C56.7091051,70.0577498 55.8822023,70.8267259 55.81,71.82 C55.8021875,79.8891431 61.804141,86.7013604 69.81,87.71 L69.75,87.71 Z" id="Shape" stroke="#000000" stroke-width="2"></path>
            <path d="M77.77,104.14 C77.77,103.096182 76.9238182,102.25 75.88,102.25 C67.043444,102.25 59.88,109.413444 59.88,118.25 L59.88,118.53 C59.1677783,118.429257 58.4493108,118.379132 57.73,118.38 C56.7367259,118.452202 55.9677498,119.279105 55.9677498,120.275 C55.9677498,121.270895 56.7367259,122.097798 57.73,122.17 C64.4932028,122.175514 69.9744858,127.656797 69.98,134.42 C70.0522023,135.413274 70.8791051,136.18225 71.875,136.18225 C72.8708949,136.18225 73.6977977,135.413274 73.77,134.42 C73.7688642,127.891537 69.8158585,122.013418 63.77,119.55 C63.77,119.12 63.71,118.69 63.71,118.25 C63.7098564,111.515631 69.1457746,106.04398 75.88,106 C76.9254337,105.994498 77.7700145,105.145448 77.77,104.1 L77.77,104.14 Z" id="Shape" stroke="#000000" stroke-width="2"></path>
            <path d="M122.34,92.15 C118.490751,92.1324929 115.167814,89.4492215 114.34,85.69 C122.326012,84.6582965 128.301006,77.8523714 128.29,69.8 C128.29,68.7561818 127.443818,67.91 126.4,67.91 C125.356182,67.91 124.51,68.7561818 124.51,69.8 C124.508694,74.7768379 121.496481,79.2582264 116.888577,81.1386899 C112.280674,83.0191534 106.993061,81.9248845 103.51,78.37 C102.764068,77.7088259 101.634001,77.7365007 100.921328,78.4333954 C100.208654,79.1302901 100.155689,80.2594544 100.8,81.02 C103.386015,83.6735383 106.816138,85.3426291 110.5,85.74 C111.394058,91.5996426 116.432543,95.9286611 122.36,95.93 C123.403818,95.93 124.25,95.0838182 124.25,94.04 C124.25,92.9961818 123.403818,92.15 122.36,92.15 L122.34,92.15 Z" id="Shape" stroke="#000000" stroke-width="2"></path>
            <path d="M116.28,114.37 C115.560689,114.369132 114.842222,114.419257 114.13,114.52 L114.13,114.24 C114.13,105.403444 106.966556,98.24 98.13,98.24 C97.4201224,98.1883982 96.7409385,98.5378751 96.3702595,99.1454819 C95.9995805,99.7530887 95.9995805,100.516911 96.3702595,101.124518 C96.7409385,101.732125 97.4201224,102.081602 98.13,102.03 C104.889304,102.035504 110.368976,107.510703 110.38,114.27 C110.38,114.71 110.38,115.14 110.31,115.57 C104.262337,118.031199 100.308401,123.910703 100.31,130.44 C100.382202,131.433274 101.209105,132.20225 102.205,132.20225 C103.200895,132.20225 104.027798,131.433274 104.1,130.44 C104.105514,123.676797 109.586797,118.195514 116.35,118.19 C117.343274,118.117798 118.11225,117.290895 118.11225,116.295 C118.11225,115.299105 117.343274,114.472202 116.35,114.4 L116.28,114.37 Z" id="Shape" stroke="#000000" stroke-width="2"></path>
            <path d="M69.75,87.71 C68.9255643,91.4713111 65.60058,94.1562359 61.75,94.17 C60.7061818,94.17 59.86,95.0161818 59.86,96.06 C59.86,97.1038182 60.7061818,97.95 61.75,97.95 C67.6774572,97.9486611 72.715942,93.6196426 73.61,87.76 C77.2938617,87.3626291 80.7239847,85.6935383 83.31,83.04 C83.9543106,82.2794544 83.9013459,81.1502901 83.1886724,80.4533954 C82.4759989,79.7565007 81.3459319,79.7288259 80.6,80.39 C77.1206665,83.955355 71.827605,85.0562873 67.215183,83.1739798 C62.602761,81.2916724 59.5913166,76.8017108 59.6,71.82 C59.5277977,70.8267259 58.7008949,70.0577498 57.705,70.0577498 C56.7091051,70.0577498 55.8822023,70.8267259 55.81,71.82 C55.8021875,79.8891431 61.804141,86.7013604 69.81,87.71 L69.75,87.71 Z" id="Shape" fill="#000000" fill-rule="nonzero"></path>
            <path d="M77.77,104.14 C77.77,103.096182 76.9238182,102.25 75.88,102.25 C67.043444,102.25 59.88,109.413444 59.88,118.25 L59.88,118.53 C59.1677783,118.429257 58.4493108,118.379132 57.73,118.38 C56.7367259,118.452202 55.9677498,119.279105 55.9677498,120.275 C55.9677498,121.270895 56.7367259,122.097798 57.73,122.17 C64.4932028,122.175514 69.9744858,127.656797 69.98,134.42 C70.0522023,135.413274 70.8791051,136.18225 71.875,136.18225 C72.8708949,136.18225 73.6977977,135.413274 73.77,134.42 C73.7688642,127.891537 69.8158585,122.013418 63.77,119.55 C63.77,119.12 63.71,118.69 63.71,118.25 C63.7098564,111.515631 69.1457746,106.04398 75.88,106 C76.9254337,105.994498 77.7700145,105.145448 77.77,104.1 L77.77,104.14 Z" id="Shape" fill="#000000" fill-rule="nonzero"></path>
            <path d="M122.34,92.15 C118.490751,92.1324929 115.167814,89.4492215 114.34,85.69 C122.326012,84.6582965 128.301006,77.8523714 128.29,69.8 C128.29,68.7561818 127.443818,67.91 126.4,67.91 C125.356182,67.91 124.51,68.7561818 124.51,69.8 C124.508694,74.7768379 121.496481,79.2582264 116.888577,81.1386899 C112.280674,83.0191534 106.993061,81.9248845 103.51,78.37 C102.764068,77.7088259 101.634001,77.7365007 100.921328,78.4333954 C100.208654,79.1302901 100.155689,80.2594544 100.8,81.02 C103.386015,83.6735383 106.816138,85.3426291 110.5,85.74 C111.394058,91.5996426 116.432543,95.9286611 122.36,95.93 C123.403818,95.93 124.25,95.0838182 124.25,94.04 C124.25,92.9961818 123.403818,92.15 122.36,92.15 L122.34,92.15 Z" id="Shape" fill="#000000" fill-rule="nonzero"></path>
            <path d="M116.28,114.37 C115.560689,114.369132 114.842222,114.419257 114.13,114.52 L114.13,114.24 C114.13,105.403444 106.966556,98.24 98.13,98.24 C97.4201224,98.1883982 96.7409385,98.5378751 96.3702595,99.1454819 C95.9995805,99.7530887 95.9995805,100.516911 96.3702595,101.124518 C96.7409385,101.732125 97.4201224,102.081602 98.13,102.03 C104.889304,102.035504 110.368976,107.510703 110.38,114.27 C110.38,114.71 110.38,115.14 110.31,115.57 C104.262337,118.031199 100.308401,123.910703 100.31,130.44 C100.382202,131.433274 101.209105,132.20225 102.205,132.20225 C103.200895,132.20225 104.027798,131.433274 104.1,130.44 C104.105514,123.676797 109.586797,118.195514 116.35,118.19 C117.343274,118.117798 118.11225,117.290895 118.11225,116.295 C118.11225,115.299105 117.343274,114.472202 116.35,114.4 L116.28,114.37 Z" id="Shape" fill="#000000" fill-rule="nonzero"></path>
        </g>
    </g>
</svg>