<?xml version="1.0" encoding="UTF-8"?>
<svg width="108px" height="465px" viewBox="0 0 108 465" version="1.1" xmlns="http://www.w3.org/2000/svg" xmlns:xlink="http://www.w3.org/1999/xlink">
    <!-- Generator: Sketch 51.2 (57519) - http://www.bohemiancoding.com/sketch -->
    <title>icon_quote_plain</title>
    <desc>Created with Sketch.</desc>
    <defs></defs>
    <g id="Page-1" stroke="none" stroke-width="1" fill="none" fill-rule="evenodd">
        <g id="icon_quote_plain" fill="#FFFFFF" fill-rule="nonzero">
            <path d="M81.11,464.68 C62.97,464.68 49.7133333,458.403333 41.34,445.85 C32.9666667,433.296667 28.78,414.98 28.78,390.9 L28.78,299.32 C28.78,278.393333 26.0766667,264.526667 20.67,257.72 C15.2633333,250.913333 8.37333333,247.513333 0,247.52 L0,217.17 C8.36666667,217.17 15.2566667,213.766667 20.67,206.96 C26.0833333,200.153333 28.7866667,186.286667 28.78,165.36 L28.78,73.78 C28.78,49.7133333 32.9666667,31.4 41.34,18.84 C49.7133333,6.28 62.97,3.55271368e-15 81.11,0 L107.8,0 L107.8,28.26 L89.48,28.26 C78.3133333,28.26 70.8133333,32.5333333 66.98,41.08 C63.1466667,49.6266667 61.23,61.05 61.23,75.35 L61.23,170.07 C61.23,180.89 60.27,190.046667 58.35,197.54 C56.43,205.033333 53.9,211.14 50.76,215.86 C47.9679965,220.217723 44.3170058,223.960584 40.03,226.86 C36.4774167,229.291351 32.4763078,230.991057 28.26,231.86 L28.26,232.91 C32.4776727,233.774565 36.4796201,235.474628 40.03,237.91 C44.3184527,240.807685 47.9697632,244.550874 50.76,248.91 C53.9,253.623333 56.43,259.726667 58.35,267.22 C60.27,274.713333 61.23,283.87 61.23,294.69 L61.23,389.41 C61.23,403.71 63.1466667,415.136667 66.98,423.69 C70.8133333,432.243333 78.3133333,436.516667 89.48,436.51 L107.8,436.51 L107.8,464.68 L81.11,464.68 Z" id="Shape"></path>
        </g>
    </g>
</svg>