<?xml version="1.0" encoding="UTF-8"?>
<svg width="180px" height="465px" viewBox="0 0 180 465" version="1.1" xmlns="http://www.w3.org/2000/svg" xmlns:xlink="http://www.w3.org/1999/xlink">
    <!-- Generator: Sketch 51.2 (57519) - http://www.bohemiancoding.com/sketch -->
    <title>icon_quote</title>
    <desc>Created with Sketch.</desc>
    <defs></defs>
    <g id="icon_quote" stroke="none" stroke-width="1" fill="none" fill-rule="evenodd">
        <g id="icon_quote_bracket+mark_W" fill="#FFFFFF" fill-rule="nonzero">
            <path d="M81.11,464.68 C62.97,464.68 49.7133333,458.403333 41.34,445.85 C32.9666667,433.296667 28.78,414.98 28.78,390.9 L28.78,299.32 C28.78,278.393333 26.0766667,264.526667 20.67,257.72 C15.2633333,250.913333 8.37333333,247.513333 0,247.52 L0,217.17 C8.36666667,217.17 15.2566667,213.766667 20.67,206.96 C26.0833333,200.153333 28.7866667,186.286667 28.78,165.36 L28.78,73.78 C28.78,49.7133333 32.9666667,31.4 41.34,18.84 C49.7133333,6.28 62.97,3.55271368e-15 81.11,0 L107.8,0 L107.8,28.26 L89.48,28.26 C78.3133333,28.26 70.8133333,32.5333333 66.98,41.08 C63.1466667,49.6266667 61.23,61.05 61.23,75.35 L61.23,170.07 C61.23,180.89 60.27,190.046667 58.35,197.54 C56.43,205.033333 53.9,211.14 50.76,215.86 C47.9679965,220.217723 44.3170058,223.960584 40.03,226.86 C36.4774167,229.291351 32.4763078,230.991057 28.26,231.86 L28.26,232.91 C32.4776727,233.774565 36.4796201,235.474628 40.03,237.91 C44.3184527,240.807685 47.9697632,244.550874 50.76,248.91 C53.9,253.623333 56.43,259.726667 58.35,267.22 C60.27,274.713333 61.23,283.87 61.23,294.69 L61.23,389.41 C61.23,403.71 63.1466667,415.136667 66.98,423.69 C70.8133333,432.243333 78.3133333,436.516667 89.48,436.51 L107.8,436.51 L107.8,464.68 L81.11,464.68 Z" id="Shape"></path>
            <path d="M149.45,64.53 C149.797573,63.147175 150.293796,61.8060315 150.93,60.53 C151.63,58.41 153.78,55.88 156.8,53.89 C159.82,51.9 163.23,50.89 165.41,51.2 C173.376038,51.5783918 179.633926,58.1582565 179.61251,66.1332478 C179.591093,74.108239 173.297956,80.6543984 165.33,80.99 C164.724652,80.9818923 164.120293,80.9384852 163.52,80.86 C165.82,88.12 170.25,95.04 176.46,99.33 C175.4,98.98 174.28,98.64 173.07,98.28 C154.27,92.82 145.95,78.8 149.45,64.53" id="Shape"></path>
            <path d="M115.65,64.53 C115.989655,63.1461282 116.482707,61.8044897 117.12,60.53 C117.82,58.41 119.97,55.88 122.99,53.89 C126.01,51.9 129.43,50.89 131.6,51.2 C139.566049,51.5758628 145.82598,58.153577 145.807241,66.1284662 C145.788501,74.1033553 139.497727,80.6515781 131.53,80.99 C130.921316,80.9822361 130.313608,80.9388284 129.71,80.86 C132.01,88.12 136.44,95.04 142.65,99.33 C141.59,98.98 140.47,98.64 139.26,98.28 C120.47,92.82 112.14,78.8 115.65,64.53" id="Shape"></path>
        </g>
    </g>
</svg>