<?xml version="1.0" encoding="UTF-8"?>
<svg width="80px" height="80px" viewBox="0 0 80 80" version="1.1" xmlns="http://www.w3.org/2000/svg" xmlns:xlink="http://www.w3.org/1999/xlink">
    <!-- Generator: Sketch 51.2 (57519) - http://www.bohemiancoding.com/sketch -->
    <title>icon_vocab_md_color</title>
    <desc>Created with Sketch.</desc>
    <defs></defs>
    <g id="icon_vocab_md_color" stroke="none" stroke-width="1" fill="none" fill-rule="evenodd">
        <g id="icon_vocab" transform="translate(0.000000, 0.439560)">
            <path d="M39.8857143,79.1208791 C61.7343418,79.1208791 79.4461538,61.409067 79.4461538,39.5604396 C79.4461538,17.7118121 61.7343418,0 39.8857143,0 C18.0370868,0 0.325274725,17.7118121 0.325274725,39.5604396 C0.325274725,61.409067 18.0370868,79.1208791 39.8857143,79.1208791 Z" id="Shape" stroke="#FFFFFF" stroke-width="0.879120879" fill="#FFE000"></path>
            <path d="M33.6087912,42.4879121 C33.4171483,41.9567445 33.0197669,41.5250745 32.5062385,41.2902242 C31.9927102,41.0553739 31.4062654,41.0371137 30.8791209,41.2395604 C29.8044296,41.6617967 29.2509947,42.8538104 29.621978,43.9472527 C31.0901099,48.1142857 33.3978022,50.8263736 35.0769231,52.0747253 C35.5454836,52.3960553 36.1253201,52.511171 36.681095,52.3932039 C37.2368698,52.2752367 37.7199503,51.9345093 38.0175824,51.4505495 C38.6461538,50.6153846 38.4351648,49.367033 37.578022,48.5318681 C35.6928304,46.9449178 34.3080223,44.8455671 33.5912088,42.4879121 L33.6087912,42.4879121 Z" id="Shape" fill="#FFFFFF" fill-rule="nonzero"></path>
            <path d="M60.0527473,25.2879121 C60.5070381,24.2450581 60.0389323,23.0307251 59.0021978,22.5626374 C52.6095805,19.5842604 45.00135,21.6225102 40.9538462,27.3978022 C40.3252747,24.4571429 39.0637363,21.1032967 36.1186813,19.6307692 C35.6505006,19.3078315 35.0697031,19.1926631 34.5137199,19.3125158 C33.9577367,19.4323685 33.47597,19.7765926 33.1824176,20.2637363 C32.8929564,20.7619428 32.8188929,21.3565542 32.9772946,21.9105455 C33.1356963,22.4645369 33.5128989,22.9301186 34.021978,23.2 C35.9076923,24.2505495 36.7472527,26.9758242 36.9582418,29.2879121 C34.021978,27.6087912 30.8703297,27.1868132 27.9340659,28.2373626 C21.2175824,30.756044 18.7032967,37.9076923 21.6395604,46.4967033 C23.7362637,52.5802198 27.9340659,58.0351648 32.3428571,60.1230769 C35.0681319,61.3802198 37.5868132,61.3802198 39.2659341,60.5626374 C41.541272,61.3460955 44.0353417,61.1878423 46.1934066,60.1230769 C50.589011,58.021978 54.7956044,52.778022 56.8967033,46.4967033 C58.9934066,40.1978022 58.3648352,34.7428571 55.2175824,31.1736264 C57.3657287,29.7256671 59.045823,27.6835888 60.0527473,25.2967033 L60.0527473,25.2879121 Z M55.0153846,25.7274725 C52.5127492,29.0062633 48.3498724,30.5568708 44.3120879,29.7142857 C46.8608358,26.4983217 50.9838258,24.9625714 55.0153846,25.7274725 Z M52.9142857,45.243956 C51.2395604,50.2813187 47.6703297,54.6901099 44.3120879,56.3648352 C43.0505495,56.9978022 41.7934066,57.2043956 40.7428571,56.8043956 C38.6461538,55.9648352 39.2747253,56.1758242 37.5956044,56.8043956 C36.5450549,57.221978 35.2879121,57.0153846 34.0307692,56.3648352 C30.6725275,54.6901099 27.3142857,50.2813187 25.4241758,45.243956 C23.3274725,38.7384615 24.7956044,33.9120879 29.410989,32.232967 C31.9296703,31.1824176 35.2879121,32.443956 37.8065934,35.3802198 C38.2046422,35.8322866 38.777885,36.0913312 39.3802198,36.0913312 C39.9825546,36.0913312 40.5557974,35.8322866 40.9538462,35.3802198 C41.5824176,34.7516484 42.2153846,34.1230769 42.632967,33.7010989 C45.5428632,34.3614495 48.571191,34.2889509 51.4461538,33.4901099 C54.1758242,35.5912088 54.8043956,40 52.9142857,45.243956 Z" id="Shape" fill="#FFFFFF" fill-rule="nonzero"></path>
        </g>
    </g>
</svg>