<?xml version="1.0" encoding="UTF-8"?>
<svg width="50px" height="50px" viewBox="0 0 50 50" version="1.1" xmlns="http://www.w3.org/2000/svg" xmlns:xlink="http://www.w3.org/1999/xlink">
    <!-- Generator: Sketch 51.1 (57501) - http://www.bohemiancoding.com/sketch -->
    <title>train</title>
    <desc>Created with Sketch.</desc>
    <defs></defs>
    <g id="train" stroke="none" stroke-width="1" fill="none" fill-rule="evenodd">
        <rect fill="#F64C3F" x="0" y="0" width="50" height="50"></rect>
        <g id="Group" transform="translate(14.500000, 13.500000)">
            <path d="M21.4660921,11.5815385 C21.4662675,10.7024699 21.1144204,9.86007318 20.4893778,9.24307692 C20.7687848,8.35038233 20.6546276,7.38066331 20.1755898,6.57757401 C19.6965519,5.77448472 18.8981689,5.2143638 17.9810445,5.03794872 C18.4798732,3.79688962 17.8978741,2.38392819 16.6705683,1.85641026 C15.2126635,0.693333333 13.6175683,0.0102564103 12.3951397,0.0102564103 C11.7387168,0.00675920389 11.1204152,0.318751472 10.7324731,0.849230769 C10.3479998,0.316635235 9.73204742,0.000862126846 9.07594924,0 C7.84737781,0 6.25842543,0.693333333 4.80052067,1.84615385 C3.89933733,2.23335056 3.31422902,3.1202426 3.31190162,4.1025641 C3.31131805,4.41602905 3.37110909,4.7266629 3.48799686,5.0174359 C2.5704967,5.19335122 1.77159132,5.75326642 1.29212417,6.55641976 C0.812657021,7.35957309 0.698232198,8.32957334 0.977615909,9.2225641 C-0.15430437,10.3412879 -0.320943061,12.1127208 0.582425433,13.4235897 C0.0561486416,14.1852357 -0.124342835,15.1342066 0.0854844336,16.0363588 C0.295311702,16.938511 0.875916772,17.7098282 1.68404448,18.16 C1.66593969,18.3083641 1.65704956,18.4577114 1.65742543,18.6071795 C1.66032909,20.2172041 2.70038363,21.6412376 4.23128258,22.1312821 C4.90893513,23.3139649 6.18212135,24.0261846 7.54269505,23.9836845 C8.90326875,23.9411844 10.1296884,23.1508848 10.7324731,21.9282051 C11.3324497,23.1516254 12.5564604,23.944382 13.9163452,23.9903077 C15.27623,24.0362333 16.5507558,23.3278565 17.2316159,22.1476923 C18.7633247,21.6583715 19.8043318,20.2341667 19.8075207,18.6235897 C19.8068747,18.4741526 19.7979882,18.3248653 19.7809016,18.1764103 C20.5890293,17.7262384 21.1696344,16.9549213 21.3794617,16.0527691 C21.5892889,15.1506169 21.4087975,14.201646 20.8825207,13.44 C21.2603763,12.8926842 21.462536,12.2428985 21.4619969,11.5774359 L21.4660921,11.5815385 Z M7.42761591,23.2102564 C6.33899288,23.2101028 5.34138222,22.6016032 4.84147305,21.6328205 C4.79048475,21.5374538 4.70222207,21.4676089 4.59780638,21.44 C3.32511677,21.0942662 2.44051283,19.938444 2.43756829,18.6174359 C2.43706437,18.4197737 2.45627082,18.2225553 2.49490162,18.0287179 C2.53187607,17.85031 2.43984345,17.6701839 2.27375877,17.5958974 C1.3673525,17.1932288 0.782455351,16.2938176 0.78104448,15.3005128 C0.779836381,14.8571343 0.897205393,14.4215255 1.12094924,14.0389744 C1.71979998,14.568056 2.49091014,14.8598368 3.28937781,14.8594872 C3.4347337,14.8700722 3.57380469,14.7983846 3.64970563,14.6737473 C3.72560657,14.54911 3.72560657,14.3924285 3.64970563,14.2677912 C3.57380469,14.1431539 3.4347337,14.0714663 3.28937781,14.0820513 C2.23413713,14.0816118 1.29201268,13.4195964 0.932311398,12.4257793 C0.572610119,11.4319623 0.87226099,10.3188903 1.68199686,9.64102564 C1.81172551,9.5335841 1.85725431,9.35446023 1.79461591,9.19794872 C1.41633336,8.2592353 1.63778427,7.18476516 2.35625415,6.47290455 C3.07472403,5.76104394 4.14965252,5.5510602 5.08246078,5.94034904 C6.01526904,6.32963789 6.62346388,7.24203946 6.62494924,8.25435897 C6.63973351,8.45810751 6.80905172,8.6158462 7.01297305,8.6158462 C7.21689439,8.6158462 7.38621259,8.45810751 7.40099686,8.25435897 C7.40438347,6.51890884 6.05853611,5.08077022 4.32956829,4.97230769 C4.08287034,4.55524802 4.02729477,4.05199362 4.17702704,3.59099845 C4.32675931,3.13000328 4.66731148,2.75587281 5.11175877,2.56410256 C5.1349853,2.55628243 5.15757595,2.54668137 5.17933019,2.53538462 C5.9930897,2.22737936 6.90699299,2.59217105 7.28633019,3.37641026 C7.38760511,3.55546396 7.61039224,3.62477797 7.79510114,3.53470017 C7.97981005,3.44462237 8.06277635,3.22620025 7.98456829,3.03589744 C7.6613971,2.37416163 7.06107134,1.89078663 6.34647305,1.71692308 C7.33752067,1.10153846 8.31218734,0.769230769 9.08823496,0.769230769 C9.78824273,0.769230769 10.3557111,1.33771434 10.3557111,2.03897436 L10.3557111,7.06871795 C9.9955538,6.78139153 9.54864236,6.62516284 9.08823496,6.62564103 C8.88485026,6.64045175 8.72739324,6.81007284 8.72739324,7.01435897 C8.72739324,7.21864511 8.88485026,7.3882662 9.08823496,7.40307692 C9.78824273,7.40307692 10.3557111,7.97156049 10.3557111,8.67282051 L10.3557111,18.0102564 C9.86244032,17.3706977 9.17332117,16.9109435 8.3940921,16.7015385 C8.26021958,16.6648958 8.11700257,16.7025846 8.01838953,16.8004077 C7.9197765,16.8982307 7.8807491,17.0413265 7.91600858,17.1757923 C7.95126806,17.310258 8.05545767,17.4156651 8.18933019,17.4523077 C9.59216629,17.8424073 10.4938119,19.2081524 10.3030858,20.6540665 C10.1123598,22.0999805 8.88754357,23.1842263 7.43171115,23.1958974 L7.42761591,23.2102564 Z M19.1993778,17.6061538 C19.0324896,17.6797391 18.939513,17.8600432 18.9761873,18.0389744 C19.0154922,18.2327445 19.0353845,18.4299621 19.0355683,18.6276923 C19.0307822,19.9471748 18.1465567,21.1008234 16.8753302,21.4461538 C16.7712185,21.4733519 16.6834477,21.5433961 16.6337111,21.6389744 C16.0085577,22.829862 14.6535218,23.4404295 13.3493156,23.1188945 C12.0451093,22.7973595 11.1276824,21.6265462 11.1256159,20.2810256 C11.1256159,20.1702564 11.1256159,20.0635897 11.1112826,19.9548718 C11.1203454,19.9207249 11.1251597,19.8855867 11.1256159,19.8502564 L11.1256159,7.01948718 C11.1267433,6.3186955 11.6935518,5.75087299 12.3930921,5.74974359 C12.5964768,5.73493287 12.7539338,5.56531177 12.7539338,5.36102564 C12.7539338,5.15673951 12.5964768,4.98711841 12.3930921,4.97230769 C11.9326847,4.97182951 11.4857733,5.1280582 11.1256159,5.41538462 L11.1256159,2.04717949 C11.1256159,1.34591947 11.6930843,0.777435897 12.3930921,0.777435897 C13.1711873,0.777435897 14.145854,1.12 15.134854,1.72512821 C14.4205139,1.89951675 13.8203862,2.3827323 13.4967588,3.04410256 C13.4185507,3.23440538 13.501517,3.4528275 13.6862259,3.5429053 C13.8709348,3.6329831 14.0937219,3.56366909 14.1949969,3.38461538 C14.474073,2.80193264 15.0630638,2.43225666 15.7081873,2.43487179 C15.9117021,2.43507858 16.1135253,2.47190252 16.3040445,2.54358974 C16.3254532,2.55560706 16.3481123,2.56523722 16.3716159,2.57230769 C16.8166515,2.76342261 17.1576639,3.13770107 17.3071288,3.59908066 C17.4565936,4.06046025 17.3999583,4.5640188 17.1517588,4.98051282 C15.4255803,5.09489603 14.0830212,6.52952093 14.0803302,8.2625641 C14.0951145,8.46631264 14.2644327,8.62405133 14.468354,8.62405133 C14.6722753,8.62405133 14.8415935,8.46631264 14.8563778,8.2625641 C14.8556603,7.24813736 15.4638791,6.33277163 16.3983246,5.9419432 C17.3327701,5.55111478 18.4101447,5.76148719 19.1296679,6.47527606 C19.8491911,7.18906493 20.0697237,8.26625593 19.6887588,9.20615385 C19.6256518,9.36222922 19.6703315,9.54126775 19.7993302,9.64923077 C20.6090661,10.3270954 20.9087169,11.4401674 20.5490157,12.4339845 C20.1893144,13.4278015 19.2471899,14.0898169 18.1919492,14.0902564 C17.9885645,14.1050671 17.8311075,14.2746882 17.8311075,14.4789744 C17.8311075,14.6832605 17.9885645,14.8528816 18.1919492,14.8676923 C18.9895393,14.8659102 19.7590875,14.5727108 20.3562826,14.0430769 C20.5800264,14.4256281 20.6973954,14.8612369 20.6961873,15.3046154 C20.6946123,16.2972807 20.1107716,17.1963007 19.2055207,17.6 L19.1993778,17.6061538 Z" id="Shape" fill="#FFFFFF" fill-rule="nonzero"></path>
            <path d="M6.58604448,11.5220513 C6.41723145,12.2936023 5.73640133,12.8443561 4.94794924,12.8471795 C4.73421504,12.8471795 4.56094924,13.0207552 4.56094924,13.2348718 C4.56094924,13.4489883 4.73421504,13.6225641 4.94794924,13.6225641 C6.16166668,13.6222895 7.19335641,12.7342857 7.37642543,11.5323077 C8.13073998,11.4507957 8.83309848,11.1084181 9.36261591,10.5641026 C9.49454617,10.4080932 9.48370101,10.1764698 9.33777264,10.033517 C9.19184426,9.89056424 8.96044959,9.88488736 8.80771115,10.0205128 C8.0952762,10.7518677 7.01145883,10.9777 6.06701052,10.5915856 C5.12256221,10.2054713 4.50593312,9.2844535 4.50771115,8.2625641 C4.49292687,8.05881557 4.32360867,7.90107688 4.11968734,7.90107688 C3.915766,7.90107688 3.7464478,8.05881557 3.73166353,8.2625641 C3.73006382,9.91777295 4.95903526,11.3151509 6.59833019,11.5220513 L6.58604448,11.5220513 Z" id="Shape" stroke="#FFFFFF" stroke-width="0.5"></path>
            <path d="M8.22823496,14.8923077 C8.22823496,14.6781911 8.05496915,14.5046154 7.84123496,14.5046154 C6.03184492,14.5046154 4.56504448,15.9740398 4.56504448,17.7866667 L4.56504448,17.8441026 C4.41920861,17.8234374 4.27209384,17.8131552 4.12480638,17.8133333 C3.92142168,17.8281441 3.76396467,17.9977651 3.76396467,18.2020513 C3.76396467,18.4063374 3.92142168,18.5759585 4.12480638,18.5907692 C5.50965267,18.5919004 6.63201061,19.7162661 6.63313972,21.1035897 C6.64792399,21.3073383 6.81724219,21.465077 7.02116353,21.465077 C7.22508486,21.465077 7.39440306,21.3073383 7.40918734,21.1035897 C7.40895477,19.7644178 6.5995298,18.5586497 5.36156829,18.0533333 C5.36156829,17.9651282 5.34928258,17.8769231 5.34928258,17.7866667 C5.34925317,16.4052576 6.46232214,15.2828676 7.84123496,15.2738462 C8.05529995,15.2727175 8.22823792,15.0985535 8.22823496,14.8841026 L8.22823496,14.8923077 Z" id="Shape" stroke="#FFFFFF" stroke-width="0.5"></path>
            <path d="M17.3544731,12.4328205 C16.5662935,12.4292293 15.8858827,11.8788147 15.7163778,11.1076923 C17.3516089,10.8960608 18.5750601,9.49997362 18.5728064,7.84820513 C18.5728064,7.63408858 18.3995406,7.46051282 18.1858064,7.46051282 C17.9720722,7.46051282 17.7988064,7.63408858 17.7988064,7.84820513 C17.798539,8.86909495 17.1817524,9.78835414 16.2382293,10.1740902 C15.2947063,10.5598263 14.2120046,10.3353609 13.4988064,9.60615385 C13.3460679,9.47052838 13.1146733,9.47620527 12.9687449,9.61915803 C12.8228165,9.76211079 12.8119714,9.99373424 12.9439016,10.1497436 C13.473419,10.6940591 14.1757776,11.0364367 14.9300921,11.1179487 C15.1131611,12.3199267 16.1448509,13.2079305 17.3585683,13.2082051 C17.5723025,13.2082051 17.7455683,13.0346294 17.7455683,12.8205128 C17.7455683,12.6063963 17.5723025,12.4328205 17.3585683,12.4328205 L17.3544731,12.4328205 Z" id="Shape" stroke="#FFFFFF" stroke-width="0.5"></path>
            <path d="M16.1136159,16.9907692 C15.9663285,16.9905911 15.8192137,17.0008733 15.6733778,17.0215385 L15.6733778,16.9641026 C15.6733778,15.1514757 14.2065774,13.6820513 12.3971873,13.6820513 C12.2518314,13.6714663 12.1127605,13.7431539 12.0368595,13.8677912 C11.9609586,13.9924285 11.9609586,14.14911 12.0368595,14.2737473 C12.1127605,14.3983846 12.2518314,14.4700722 12.3971873,14.4594872 C13.7812353,14.4606163 14.9032633,15.5837339 14.9055207,16.9702564 C14.9055207,17.0605128 14.9055207,17.1487179 14.8911873,17.2369231 C13.6528564,17.7417844 12.8432408,18.9478365 12.8435683,20.2871795 C12.8583526,20.490928 13.0276708,20.6486667 13.2315921,20.6486667 C13.4355134,20.6486667 13.6048316,20.490928 13.6196159,20.2871795 C13.620745,18.8998558 14.743103,17.7754901 16.1279492,17.774359 C16.3313339,17.7595483 16.488791,17.5899272 16.488791,17.385641 C16.488791,17.1813549 16.3313339,17.0117338 16.1279492,16.9969231 L16.1136159,16.9907692 Z" id="Shape" stroke="#FFFFFF" stroke-width="0.5"></path>
            <path d="M6.58604448,11.5220513 C6.41723145,12.2936023 5.73640133,12.8443561 4.94794924,12.8471795 C4.73421504,12.8471795 4.56094924,13.0207552 4.56094924,13.2348718 C4.56094924,13.4489883 4.73421504,13.6225641 4.94794924,13.6225641 C6.16166668,13.6222895 7.19335641,12.7342857 7.37642543,11.5323077 C8.13073998,11.4507957 8.83309848,11.1084181 9.36261591,10.5641026 C9.49454617,10.4080932 9.48370101,10.1764698 9.33777264,10.033517 C9.19184426,9.89056424 8.96044959,9.88488736 8.80771115,10.0205128 C8.0952762,10.7518677 7.01145883,10.9777 6.06701052,10.5915856 C5.12256221,10.2054713 4.50593312,9.2844535 4.50771115,8.2625641 C4.49292687,8.05881557 4.32360867,7.90107688 4.11968734,7.90107688 C3.915766,7.90107688 3.7464478,8.05881557 3.73166353,8.2625641 C3.73006382,9.91777295 4.95903526,11.3151509 6.59833019,11.5220513 L6.58604448,11.5220513 Z" id="Shape" fill="#FFFFFF" fill-rule="nonzero"></path>
            <path d="M8.22823496,14.8923077 C8.22823496,14.6781911 8.05496915,14.5046154 7.84123496,14.5046154 C6.03184492,14.5046154 4.56504448,15.9740398 4.56504448,17.7866667 L4.56504448,17.8441026 C4.41920861,17.8234374 4.27209384,17.8131552 4.12480638,17.8133333 C3.92142168,17.8281441 3.76396467,17.9977651 3.76396467,18.2020513 C3.76396467,18.4063374 3.92142168,18.5759585 4.12480638,18.5907692 C5.50965267,18.5919004 6.63201061,19.7162661 6.63313972,21.1035897 C6.64792399,21.3073383 6.81724219,21.465077 7.02116353,21.465077 C7.22508486,21.465077 7.39440306,21.3073383 7.40918734,21.1035897 C7.40895477,19.7644178 6.5995298,18.5586497 5.36156829,18.0533333 C5.36156829,17.9651282 5.34928258,17.8769231 5.34928258,17.7866667 C5.34925317,16.4052576 6.46232214,15.2828676 7.84123496,15.2738462 C8.05529995,15.2727175 8.22823792,15.0985535 8.22823496,14.8841026 L8.22823496,14.8923077 Z" id="Shape" fill="#FFFFFF" fill-rule="nonzero"></path>
            <path d="M17.3544731,12.4328205 C16.5662935,12.4292293 15.8858827,11.8788147 15.7163778,11.1076923 C17.3516089,10.8960608 18.5750601,9.49997362 18.5728064,7.84820513 C18.5728064,7.63408858 18.3995406,7.46051282 18.1858064,7.46051282 C17.9720722,7.46051282 17.7988064,7.63408858 17.7988064,7.84820513 C17.798539,8.86909495 17.1817524,9.78835414 16.2382293,10.1740902 C15.2947063,10.5598263 14.2120046,10.3353609 13.4988064,9.60615385 C13.3460679,9.47052838 13.1146733,9.47620527 12.9687449,9.61915803 C12.8228165,9.76211079 12.8119714,9.99373424 12.9439016,10.1497436 C13.473419,10.6940591 14.1757776,11.0364367 14.9300921,11.1179487 C15.1131611,12.3199267 16.1448509,13.2079305 17.3585683,13.2082051 C17.5723025,13.2082051 17.7455683,13.0346294 17.7455683,12.8205128 C17.7455683,12.6063963 17.5723025,12.4328205 17.3585683,12.4328205 L17.3544731,12.4328205 Z" id="Shape" fill="#FFFFFF" fill-rule="nonzero"></path>
            <path d="M16.1136159,16.9907692 C15.9663285,16.9905911 15.8192137,17.0008733 15.6733778,17.0215385 L15.6733778,16.9641026 C15.6733778,15.1514757 14.2065774,13.6820513 12.3971873,13.6820513 C12.2518314,13.6714663 12.1127605,13.7431539 12.0368595,13.8677912 C11.9609586,13.9924285 11.9609586,14.14911 12.0368595,14.2737473 C12.1127605,14.3983846 12.2518314,14.4700722 12.3971873,14.4594872 C13.7812353,14.4606163 14.9032633,15.5837339 14.9055207,16.9702564 C14.9055207,17.0605128 14.9055207,17.1487179 14.8911873,17.2369231 C13.6528564,17.7417844 12.8432408,18.9478365 12.8435683,20.2871795 C12.8583526,20.490928 13.0276708,20.6486667 13.2315921,20.6486667 C13.4355134,20.6486667 13.6048316,20.490928 13.6196159,20.2871795 C13.620745,18.8998558 14.743103,17.7754901 16.1279492,17.774359 C16.3313339,17.7595483 16.488791,17.5899272 16.488791,17.385641 C16.488791,17.1813549 16.3313339,17.0117338 16.1279492,16.9969231 L16.1136159,16.9907692 Z" id="Shape" fill="#FFFFFF" fill-rule="nonzero"></path>
        </g>
    </g>
</svg>