<?xml version="1.0" encoding="UTF-8"?>
<svg width="48px" height="48px" viewBox="0 0 48 48" version="1.1" xmlns="http://www.w3.org/2000/svg" xmlns:xlink="http://www.w3.org/1999/xlink">
    <!-- Generator: Sketch 51.1 (57501) - http://www.bohemiancoding.com/sketch -->
    <title>arrow-left</title>
    <desc>Created with Sketch.</desc>
    <defs>
        <filter x="-21.9%" y="-15.6%" width="143.8%" height="143.8%" filterUnits="objectBoundingBox" id="filter-1">
            <feOffset dx="0" dy="2" in="SourceAlpha" result="shadowOffsetOuter1"></feOffset>
            <feGaussianBlur stdDeviation="2" in="shadowOffsetOuter1" result="shadowBlurOuter1"></feGaussianBlur>
            <feColorMatrix values="0 0 0 0 0   0 0 0 0 0   0 0 0 0 0  0 0 0 0.5 0" type="matrix" in="shadowBlurOuter1" result="shadowMatrixOuter1"></feColorMatrix>
            <feMerge>
                <feMergeNode in="shadowMatrixOuter1"></feMergeNode>
                <feMergeNode in="SourceGraphic"></feMergeNode>
            </feMerge>
        </filter>
    </defs>
    <g id="arrow-left" stroke="none" stroke-width="1" fill="none" fill-rule="evenodd">
        <g id="right-arrow" filter="url(#filter-1)" transform="translate(24.000000, 24.000000) scale(-1, 1) translate(-24.000000, -24.000000) translate(8.000000, 8.000000)" fill-rule="nonzero">
            <g id="Group" fill="#8CB450">
                <path d="M16,31.4074074 C7.49096296,31.4074074 0.592592593,24.509037 0.592592593,16 C0.592592593,7.49096296 7.49096296,0.592592593 16,0.592592593 C24.509037,0.592592593 31.4074074,7.49096296 31.4074074,16 C31.4074074,24.509037 24.509037,31.4074074 16,31.4074074 Z" id="Shape"></path>
                <path d="M16,32 C7.17748148,32 0,24.8225185 0,16 C0,7.17748148 7.17748148,0 16,0 C24.8225185,0 32,7.17748148 32,16 C32,24.8225185 24.8225185,32 16,32 Z M16,1.18518519 C7.83111111,1.18518519 1.18518519,7.83111111 1.18518519,16 C1.18518519,24.1688889 7.83111111,30.8148148 16,30.8148148 C24.1688889,30.8148148 30.8148148,24.1688889 30.8148148,16 C30.8148148,7.83111111 24.1688889,1.18518519 16,1.18518519 Z" id="Shape"></path>
            </g>
            <path d="M13.2112593,23.7037037 C13.0595556,23.7037037 12.9078519,23.6456296 12.7922963,23.5300741 C12.5605926,23.2983704 12.5605926,22.9238519 12.7922963,22.6921481 L19.4844444,16 L12.7922963,9.30785185 C12.5605926,9.07614815 12.5605926,8.70162963 12.7922963,8.46992593 C13.024,8.23822222 13.3985185,8.23822222 13.6302222,8.46992593 L20.4438519,15.2835556 C20.8391111,15.6788148 20.8391111,16.3211852 20.4438519,16.7164444 L13.6302222,23.5300741 C13.5146667,23.6456296 13.362963,23.7037037 13.2112593,23.7037037 Z" id="Shape" fill="#FFFFFF"></path>
        </g>
    </g>
</svg>