<?xml version="1.0" encoding="UTF-8"?>
<svg width="20px" height="20px" viewBox="0 0 20 20" version="1.1" xmlns="http://www.w3.org/2000/svg" xmlns:xlink="http://www.w3.org/1999/xlink">
    <!-- Generator: Sketch 51.2 (57519) - http://www.bohemiancoding.com/sketch -->
    <title>icon_mark_x_white</title>
    <desc>Created with Sketch.</desc>
    <defs></defs>
    <g id="icon_mark_x_white" stroke="none" stroke-width="1" fill="none" fill-rule="evenodd">
        <g fill="#FFFFFF" fill-rule="nonzero" id="Shape">
            <path d="M19.4258065,2.76774194 L16.7741935,0.15483871 C16.6785388,0.0587075873 16.5485168,0.00466146363 16.4129032,0.00466146363 C16.2772897,0.00466146363 16.1472677,0.0587075873 16.0516129,0.15483871 L5.08387097,11.1612903 C5.32903226,11.3419355 5.57419355,11.5096774 5.82580645,11.6774194 C6.40645161,12.0580645 7,12.4193548 7.58709677,12.7870968 C8.17419355,13.1548387 8.63225806,13.4322581 9.14193548,13.8 L19.4064516,3.47741935 C19.6031705,3.27672593 19.6031705,2.95553214 19.4064516,2.75483871"></path>
            <path d="M0.148387097,16.8709677 L2.78709677,19.4903226 C2.88275158,19.5864537 3.01277355,19.6404998 3.1483871,19.6404998 C3.28400065,19.6404998 3.41402261,19.5864537 3.50967742,19.4903226 L14.4774194,8.47741935 C14.2322581,8.29677419 13.9806452,8.12903226 13.7290323,7.96129032 C13.1483871,7.58064516 12.5548387,7.21935484 11.9677419,6.8516129 C11.3806452,6.48387097 10.9290323,6.20645161 10.4129032,5.83870968 L0.15483871,16.1612903 C0.0587075873,16.2569451 0.00466146363,16.3869671 0.00466146363,16.5225806 C0.00466146363,16.6581942 0.0587075873,16.7882162 0.15483871,16.883871"></path>
            <path d="M0.148387097,2.76774194 L2.78709677,0.15483871 C2.88275158,0.0587075873 3.01277355,0.00466146363 3.1483871,0.00466146363 C3.28400065,0.00466146363 3.41402261,0.0587075873 3.50967742,0.15483871 L14.4774194,11.1612903 C14.2322581,11.3419355 13.9806452,11.5096774 13.7290323,11.6774194 C13.1483871,12.0580645 12.5548387,12.4193548 11.9677419,12.7870968 C11.3806452,13.1548387 10.9290323,13.4322581 10.4129032,13.8 L0.15483871,3.47741935 C0.0587075873,3.38176455 0.00466146363,3.25174258 0.00466146363,3.11612903 C0.00466146363,2.98051548 0.0587075873,2.85049352 0.15483871,2.75483871"></path>
            <path d="M19.4258065,16.8709677 L16.7741935,19.4903226 C16.6785388,19.5864537 16.5485168,19.6404998 16.4129032,19.6404998 C16.2772897,19.6404998 16.1472677,19.5864537 16.0516129,19.4903226 L5.08387097,8.47741935 C5.32903226,8.29677419 5.57419355,8.12903226 5.82580645,7.96129032 C6.40645161,7.58064516 7,7.21935484 7.58709677,6.8516129 C8.17419355,6.48387097 8.63225806,6.20645161 9.14193548,5.83870968 L19.4064516,16.1612903 C19.6031705,16.3619837 19.6031705,16.6831775 19.4064516,16.883871"></path>
        </g>
    </g>
</svg>