<?xml version="1.0" encoding="UTF-8"?>
<svg width="48px" height="48px" viewBox="0 0 48 48" version="1.1" xmlns="http://www.w3.org/2000/svg" xmlns:xlink="http://www.w3.org/1999/xlink">
    <!-- Generator: Sketch 51.2 (57519) - http://www.bohemiancoding.com/sketch -->
    <title>icon_signup</title>
    <desc>Created with Sketch.</desc>
    <defs></defs>
    <g id="icon_signup" stroke="none" stroke-width="1" fill="none" fill-rule="evenodd">
        <g id="icon_sign-up_W" transform="translate(0.000000, 4.000000)" fill="#FFFFFF" fill-rule="nonzero">
            <path d="M31.75,38.8025316 L0.9,38.8025316 C0.660897022,38.8038542 0.431199376,38.7106581 0.262125386,38.5437243 C0.0930513955,38.3767905 -0.00133954407,38.1500004 1.49879939e-15,37.9139241 L1.49879939e-15,0.888607595 C-0.00133954407,0.652531237 0.0930513955,0.425741156 0.262125386,0.258807343 C0.431199376,0.0918735297 0.660897022,-0.00132258782 0.9,-5.52079134e-15 L31.75,-5.52079134e-15 C31.989103,-0.00132258782 32.2188006,0.0918735297 32.3878746,0.258807343 C32.5569486,0.425741156 32.6513395,0.652531237 32.65,0.888607595 L32.65,19.4012658 C32.65,19.8920302 32.2470562,20.2898733 31.75,20.2898733 C31.2529438,20.2898733 30.85,19.8920302 30.85,19.4012658 L30.85,1.82658228 L1.85,1.82658228 L1.85,37.0253165 L30.85,37.0253165 L30.85,34.2113924 C30.85,33.720628 31.2529437,33.3227848 31.75,33.3227848 C32.2470563,33.3227848 32.65,33.720628 32.65,34.2113924 L32.65,37.9139241 C32.6513395,38.1500004 32.5569486,38.3767905 32.3878746,38.5437243 C32.2188006,38.7106581 31.989103,38.8038542 31.75,38.8025316 Z" id="Shape"></path>
            <path d="M28.35,31.6443038 C28.1112816,31.6370396 27.8821232,31.5500174 27.7,31.3974684 C27.4187706,31.1280165 27.3387872,30.7134193 27.5,30.3607595 L29.5,26.5594937 C29.55,26.4607595 29.6,26.4113924 29.65,26.3126582 L44.1,11.8481013 C44.4624474,11.5020115 45.0375526,11.5020115 45.4,11.8481013 L47.2,13.5759494 C47.3961402,13.731786 47.5071437,13.9692492 47.5,14.2177215 C47.5019505,14.4551784 47.4126084,14.6845275 47.25,14.8594937 L32.75,29.3240506 C32.7,29.3734177 32.6,29.4227848 32.55,29.4721519 L28.75,31.5455696 C28.6351414,31.629422 28.4913116,31.6649243 28.35,31.6443038 Z M31.05,27.4974684 L30.5,28.5341772 L31.55,27.9417722 L45.25,14.2177215 L44.75,13.7240506 L31.05,27.4974684 Z" id="Shape"></path>
            <path d="M27.3,9.9721519 L5.35,9.9721519 C5.16311023,9.97623882 4.98264734,9.90473574 4.8504639,9.77422551 C4.71828047,9.64371529 4.64586069,9.46553673 4.65,9.28101266 L4.65,5.67721519 C4.64586069,5.49269111 4.71828047,5.31451256 4.8504639,5.18400233 C4.98264734,5.05349211 5.16311023,4.98198903 5.35,4.98607595 L27.3,4.98607595 C27.4868898,4.98198903 27.6673527,5.05349211 27.7995361,5.18400233 C27.9317195,5.31451256 28.0041393,5.49269111 28,5.67721519 L28,9.28101266 C28.0041393,9.46553673 27.9317195,9.64371529 27.7995361,9.77422551 C27.6673527,9.90473574 27.4868898,9.97623882 27.3,9.9721519 Z M6.05,8.63924051 L26.6,8.63924051 L26.6,6.36835443 L6.05,6.36835443 L6.05,8.63924051 Z" id="Shape"></path>
            <path d="M27.3,18.0189873 L5.35,18.0189873 C5.16311023,18.0230743 4.98264734,17.9515712 4.8504639,17.821061 C4.71828047,17.6905507 4.64586069,17.5123722 4.65,17.3278481 L4.65,13.7240506 C4.64586069,13.5395266 4.71828047,13.361348 4.8504639,13.2308378 C4.98264734,13.1003276 5.16311023,13.0288245 5.35,13.0329114 L27.3,13.0329114 C27.4868898,13.0288245 27.6673527,13.1003276 27.7995361,13.2308378 C27.9317195,13.361348 28.0041393,13.5395266 28,13.7240506 L28,17.3278481 C28.0041393,17.5123722 27.9317195,17.6905507 27.7995361,17.821061 C27.6673527,17.9515712 27.4868898,18.0230743 27.3,18.0189873 Z M6.05,16.6860759 L26.6,16.6860759 L26.6,14.4151899 L6.05,14.4151899 L6.05,16.6860759 Z" id="Shape"></path>
            <path d="M27.35,26.0658228 L5.4,26.0658228 C5.21311023,26.0699097 5.03264734,25.9984066 4.9004639,25.8678964 C4.76828047,25.7373862 4.69586069,25.5592076 4.7,25.3746835 L4.7,21.7708861 C4.69586069,21.586362 4.76828047,21.4081834 4.9004639,21.2776732 C5.03264734,21.147163 5.21311023,21.0756599 5.4,21.0797468 L27.35,21.0797468 C27.5368898,21.0756599 27.7173527,21.147163 27.8495361,21.2776732 C27.9817195,21.4081834 28.0541393,21.586362 28.05,21.7708861 L28.05,25.3746835 C28.0420406,25.7530863 27.733254,26.0579641 27.35,26.0658228 Z M6.1,24.7329114 L26.65,24.7329114 L26.65,22.4620253 L6.1,22.4620253 L6.1,24.7329114 Z" id="Shape"></path>
            <path d="M10.1,34.3594937 L6,34.3594937 C5.81311023,34.3635806 5.63264734,34.2920775 5.5004639,34.1615673 C5.36828047,34.0310571 5.29586069,33.8528785 5.3,33.6683544 L5.3,29.6202532 C5.29586069,29.4357291 5.36828047,29.2575505 5.5004639,29.1270403 C5.63264734,28.9965301 5.81311023,28.925027 6,28.9291139 L10.1,28.9291139 C10.2868898,28.925027 10.4673527,28.9965301 10.5995361,29.1270403 C10.7317195,29.2575505 10.8041393,29.4357291 10.8,29.6202532 L10.8,33.6683544 C10.7756637,34.0396523 10.4760581,34.3354654 10.1,34.3594937 Z M6.65,33.0265823 L9.4,33.0265823 L9.4,30.3113924 L6.65,30.3113924 L6.65,33.0265823 Z" id="Shape"></path>
            <path d="M18.15,34.3594937 L14.05,34.3594937 C13.8631102,34.3635806 13.6826473,34.2920775 13.5504639,34.1615673 C13.4182805,34.0310571 13.3458607,33.8528785 13.35,33.6683544 L13.35,29.6202532 C13.3458607,29.4357291 13.4182805,29.2575505 13.5504639,29.1270403 C13.6826473,28.9965301 13.8631102,28.925027 14.05,28.9291139 L18.15,28.9291139 C18.3368898,28.925027 18.5173527,28.9965301 18.6495361,29.1270403 C18.7817195,29.2575505 18.8541393,29.4357291 18.85,29.6202532 L18.85,33.6683544 C18.8420406,34.0467571 18.533254,34.351635 18.15,34.3594937 Z M14.7,33.0265823 L17.45,33.0265823 L17.45,30.3113924 L14.7,30.3113924 L14.7,33.0265823 Z" id="Shape"></path>
            <path d="M25.75,34.3594937 L22.6,34.3594937 C22.4131102,34.3635806 22.2326473,34.2920775 22.1004639,34.1615673 C21.9682805,34.0310571 21.8958607,33.8528785 21.9,33.6683544 L21.9,29.6202532 C21.8958607,29.4357291 21.9682805,29.2575505 22.1004639,29.1270403 C22.2326473,28.9965301 22.4131102,28.925027 22.6,28.9291139 L25.7,28.9291139 C26.0865993,28.9291139 26.4,29.2385475 26.4,29.6202532 C26.4,30.0019588 26.0865993,30.3113924 25.7,30.3113924 L23.25,30.3113924 L23.25,33.0265823 L25.75,33.0265823 C25.9368898,33.0224954 26.1173527,33.0939984 26.2495361,33.2245087 C26.3817195,33.3550189 26.4541393,33.5331974 26.45,33.7177215 C26.4448224,33.8949711 26.3677879,34.0627476 26.2361807,34.1834073 C26.1045735,34.3040671 25.9294131,34.3675072 25.75,34.3594937 Z" id="Shape"></path>
        </g>
    </g>
</svg>