<?xml version="1.0" encoding="UTF-8"?>
<svg width="48px" height="48px" viewBox="0 0 48 48" version="1.1" xmlns="http://www.w3.org/2000/svg" xmlns:xlink="http://www.w3.org/1999/xlink">
    <!-- Generator: Sketch 51.2 (57519) - http://www.bohemiancoding.com/sketch -->
    <title>icon_location</title>
    <desc>Created with Sketch.</desc>
    <defs></defs>
    <g id="icon_location" stroke="none" stroke-width="1" fill="none" fill-rule="evenodd">
        <g id="icon_location_W" fill="#FFFFFF" fill-rule="nonzero">
            <path d="M24.2338462,20.0635065 C26.9448688,20.0782937 29.3978166,18.4714824 30.4484958,15.9925803 C31.499175,13.5136782 30.9405853,10.6510682 29.0332845,8.74003354 C27.1259837,6.82899892 24.2457401,6.24604368 21.7360625,7.26309116 C19.2263849,8.28013864 17.5817193,10.6968144 17.5692308,13.3858442 C17.5577734,15.1487063 18.2540905,16.8436177 19.5044829,18.096458 C20.7548754,19.3492983 22.456533,20.0570559 24.2338462,20.0635065 Z M24.2338462,10.8283117 C25.6748841,10.8118174 26.8578332,11.9546887 26.8791244,13.3839691 C26.9004155,14.8132494 25.7520247,15.9902879 24.3111245,16.01603 C22.8702243,16.0417721 21.6798448,14.9065164 21.6492308,13.4774026 L21.6492308,13.4163636 C21.6459588,12.733205 21.9164294,12.0767383 22.4011405,11.5913828 C22.8858516,11.1060272 23.5450969,10.8315417 24.2338462,10.8283117 Z" id="Shape"></path>
            <path d="M47.8523077,44.1922078 L44.7753846,27.3454545 C44.5957934,26.3757108 43.7385986,25.6749093 42.7446154,25.6851948 L34.1723077,25.6851948 L35.6061538,23.8051948 C37.7906205,20.9682131 38.881795,17.4506809 38.6830769,13.8863636 C38.1784615,6.07948052 31.7723077,0.0061038961 24.1230769,0.0061038961 C16.4738462,0.0061038961 10.0615385,6.07948052 9.54461538,13.8619481 C9.34644316,17.4261992 10.4375608,20.9435479 12.6215385,23.7807792 L14.0061538,25.6851948 L5.72923077,25.6851948 C4.74129863,25.6813453 3.89301348,26.3812252 3.71692308,27.3454545 L0.64,44.1861039 C0.528474348,44.7797622 0.688851541,45.3918702 1.07767113,45.8565536 C1.46649073,46.3212369 2.04348969,46.5903767 2.65230769,46.591039 L45.7969231,46.591039 C46.9252833,46.591039 47.84,45.6837469 47.84,44.5645455 C47.8489378,44.4446658 47.8489378,44.3242952 47.84,44.2044156 L47.8523077,44.1922078 Z M13.6123077,14.1244156 C13.9384615,9.18025974 17.9630769,4.04688312 24.1107692,4.04688312 C30.2584615,4.04688312 34.2769231,9.16194805 34.6092308,14.0877922 C34.745155,16.6892547 33.9374275,19.2530027 32.3323077,21.3148052 L24.1107692,32.2712987 L15.8830769,21.3514286 C14.2779571,19.2896261 13.4702296,16.7258781 13.6061538,14.1244156 L13.6123077,14.1244156 Z M5.10769231,42.5380519 L7.43384615,29.7198701 L17.0830769,29.7198701 L22.4676923,36.837013 C22.7922786,37.2679021 23.2762551,37.5531195 23.812997,37.6298287 C24.3497388,37.706538 24.8952075,37.5684454 25.3292308,37.245974 C25.4859553,37.1302316 25.6248489,36.9924654 25.7415385,36.837013 L31.1138462,29.7076623 L41.04,29.7076623 L43.36,42.5258442 L5.10769231,42.5380519 Z" id="Shape"></path>
        </g>
    </g>
</svg>