<?xml version="1.0" encoding="UTF-8"?>
<svg width="80px" height="80px" viewBox="0 0 80 80" version="1.1" xmlns="http://www.w3.org/2000/svg" xmlns:xlink="http://www.w3.org/1999/xlink">
    <!-- Generator: Sketch 51.2 (57519) - http://www.bohemiancoding.com/sketch -->
    <title>icon_reading_md_color</title>
    <desc>Created with Sketch.</desc>
    <defs></defs>
    <g id="icon_reading_md_color" stroke="none" stroke-width="1" fill="none" fill-rule="evenodd">
        <g id="icon_read" transform="translate(0.439560, 0.439560)">
            <path d="M39.767033,79.1208791 C61.6156604,79.1208791 79.3274725,61.409067 79.3274725,39.5604396 C79.3274725,17.7118121 61.6156604,0 39.767033,0 C17.9184055,0 0.206593407,17.7118121 0.206593407,39.5604396 C0.206593407,61.409067 17.9184055,79.1208791 39.767033,79.1208791 Z" id="Shape" stroke="#FFFFFF" stroke-width="0.879120879" fill="#19897D"></path>
            <path d="M48.1846154,45.7978022 L50.6901099,48.3208791 C51.3432629,48.0131605 52.0560142,47.8526039 52.778022,47.8505495 C54.049516,47.8733807 55.2595582,48.4016867 56.1406593,49.3186813 C57.6351648,50.7868132 59.1340659,52.2549451 60.610989,53.7362637 C61.8654498,54.9346171 62.3764211,56.7161931 61.9478051,58.3972674 C61.5191891,60.0783418 60.2175688,61.3977693 58.5424733,61.8491869 C56.8673778,62.3006044 55.0790237,61.8138869 53.8637363,60.5758242 C52.3032967,58.9978022 50.7032967,57.4549451 49.2,55.8241758 C47.8930447,54.5065615 47.5425089,52.5155183 48.3208791,50.8307692 C48.4142338,50.6853285 48.3775538,50.4922758 48.2373626,50.3912088 C47.5252747,49.6923077 46.821978,48.9846154 46.1186813,48.2769231 C46.0584425,48.2030611 46.0054511,48.1235739 45.9604396,48.0395604 C41.9252747,51.2615385 37.410989,52.610989 32.378022,51.9604396 C28.0275437,51.450682 24.041929,49.2807187 21.2527473,45.9032967 C15.2334537,38.7949374 15.8022618,28.2257277 22.5496865,21.8044407 C29.2971113,15.3831538 39.8815206,15.3382388 46.6831989,21.7020299 C53.4848773,28.065821 54.1433644,38.6298227 48.1846154,45.789011 L48.1846154,45.7978022 Z M49.032967,34.6153846 C49.0525382,28.7974354 45.5629524,23.5414684 40.1934753,21.3014614 C34.8239981,19.0614544 28.6337313,20.2792374 24.5128714,24.386235 C20.3920115,28.4932327 19.1533769,34.679361 21.3752783,40.0563555 C23.5971797,45.4333501 28.8413585,48.9406264 34.6593407,48.9406593 C42.5659263,48.9095615 48.9752275,42.5218206 49.032967,34.6153846 Z M52.7472527,51.0373626 C52.1898178,51.0248931 51.668318,51.3116341 51.3802198,51.789011 C50.9406593,52.4307692 51.0461538,53.2087912 51.6791209,53.8461538 L54.756044,56.9230769 C55.2263736,57.3934066 55.6835165,57.8725275 56.167033,58.3252747 C56.451041,58.6122369 56.8380159,58.7737013 57.2417582,58.7737013 C57.6455006,58.7737013 58.0324755,58.6122369 58.3164835,58.3252747 C58.9978022,57.621978 59.0417582,56.7252747 58.4043956,56.0791209 C56.8835165,54.5494505 55.3567766,53.0241758 53.8241758,51.5032967 C53.5447738,51.209227 53.1526294,51.0491681 52.7472527,51.0637363 L52.7472527,51.0373626 Z" id="Shape" fill="#FFFFFF" fill-rule="nonzero"></path>
            <path d="M45.8681319,34.1142857 C45.9213073,34.6022291 45.8065735,35.0937236 45.5428571,35.5076923 C45.1469732,36.0651514 44.43642,36.3031867 43.7846154,36.0967033 C43.1226122,35.9142757 42.6616603,35.3152176 42.6549451,34.6285714 C42.6529723,32.5727773 41.8669491,30.5951429 40.4571429,29.0989011 C39.2054024,27.7506676 37.511683,26.8960099 35.6835165,26.6901099 C35.3419427,26.6519581 34.9986311,26.631418 34.6549451,26.6285714 C33.7640066,26.6285714 33.0417582,25.9063231 33.0417582,25.0153846 C33.0417582,24.1244461 33.7640066,23.4021978 34.6549451,23.4021978 C36.698326,23.380508 38.7053431,23.9432659 40.4395604,25.0241758 C43.1293574,26.6235952 45.0156307,29.2876967 45.6307692,32.356044 C45.7538462,32.9362637 45.8021978,33.5252747 45.8857143,34.1142857 L45.8681319,34.1142857 Z" id="Shape" fill="#FFFFFF" fill-rule="nonzero"></path>
        </g>
    </g>
</svg>