<?xml version="1.0" encoding="UTF-8"?>
<svg width="182px" height="182px" viewBox="0 0 182 182" version="1.1" xmlns="http://www.w3.org/2000/svg" xmlns:xlink="http://www.w3.org/1999/xlink">
    <!-- Generator: Sketch 51.2 (57519) - http://www.bohemiancoding.com/sketch -->
    <title>icon_reading</title>
    <desc>Created with Sketch.</desc>
    <defs></defs>
    <g id="icon_reading" stroke="none" stroke-width="1" fill="none" fill-rule="evenodd">
        <g id="icon_read" transform="translate(1.000000, 1.000000)">
            <path d="M109.62,104.19 L115.32,109.93 C116.805923,109.22994 118.427432,108.864674 120.07,108.86 C122.962649,108.911941 125.715495,110.113837 127.72,112.2 C131.12,115.54 134.53,118.88 137.89,122.25 C140.743898,124.976254 141.906358,129.029339 140.931257,132.853783 C139.956155,136.678228 136.994969,139.679925 133.184127,140.7069 C129.373285,141.733875 125.304779,140.626593 122.54,137.81 C118.99,134.22 115.35,130.71 111.93,127 C108.956677,124.002427 108.159208,119.472804 109.93,115.64 C110.142382,115.309122 110.058935,114.869927 109.74,114.64 C108.12,113.05 106.52,111.44 104.92,109.83 C104.782957,109.661964 104.662401,109.481131 104.56,109.29 C95.38,116.62 85.11,119.69 73.66,118.21 C63.7626618,117.050302 54.6953884,112.113635 48.35,104.43 C34.6561072,88.2584826 35.9501455,64.2135304 51.3005368,49.6051027 C66.6509281,34.996675 90.7304593,34.8944932 106.204278,49.372118 C121.678096,63.8497428 123.176154,87.8828467 109.62,104.17 L109.62,104.19 Z M111.55,78.75 C111.594524,65.5141655 103.655717,53.5568405 91.4401562,48.4608247 C79.2245957,43.3648088 65.1417387,46.135265 55.7667824,55.4786847 C46.3918261,64.8221045 43.5739325,78.8955462 48.6287582,91.1282088 C53.6835839,103.360871 65.6140906,111.339925 78.85,111.34 C96.8374823,111.269252 111.418643,96.7371418 111.55,78.75 Z M120,116.11 C118.731835,116.081632 117.545423,116.733968 116.89,117.82 C115.89,119.28 116.13,121.05 117.57,122.5 L124.57,129.5 C125.64,130.57 126.68,131.66 127.78,132.69 C128.426118,133.342839 129.306486,133.71017 130.225,133.71017 C131.143514,133.71017 132.023882,133.342839 132.67,132.69 C134.22,131.09 134.32,129.05 132.87,127.58 C129.41,124.1 125.936667,120.63 122.45,117.17 C121.81436,116.500991 120.922232,116.136857 120,116.17 L120,116.11 Z" id="Shape" fill="#FFFFFF" fill-rule="nonzero"></path>
            <path d="M104.35,77.61 C104.470974,78.7200713 104.209955,79.8382212 103.61,80.78 C102.709364,82.0482193 101.092856,82.5897497 99.61,82.12 C98.1039427,81.7049772 97.0552772,80.3421201 97.04,78.78 C97.035512,74.1030684 95.2473092,69.6039502 92.04,66.2 C89.1922905,63.1327687 85.3390789,61.1884226 81.18,60.72 C80.4029196,60.6332046 79.6218858,60.586476 78.84,60.58 C76.813115,60.58 75.17,58.936885 75.17,56.91 C75.17,54.883115 76.813115,53.24 78.84,53.24 C83.4886916,53.1906557 88.0546556,54.4709299 92,56.93 C98.1192881,60.5686791 102.41056,66.6295101 103.81,73.61 C104.09,74.93 104.2,76.27 104.39,77.61 L104.35,77.61 Z" id="Shape" fill="#FFFFFF" fill-rule="nonzero"></path>
            <path d="M90.47,180 C140.175627,180 180.47,139.705627 180.47,90 C180.47,40.2943725 140.175627,0 90.47,0 C40.7643725,0 0.47,40.2943725 0.47,90 C0.47,139.705627 40.7643725,180 90.47,180 Z" id="Shape" stroke="#FFFFFF" stroke-width="2"></path>
        </g>
    </g>
</svg>