<?xml version="1.0" encoding="UTF-8"?>
<svg width="500px" height="500px" viewBox="0 0 500 500" version="1.1" xmlns="http://www.w3.org/2000/svg" xmlns:xlink="http://www.w3.org/1999/xlink">
    <!-- Generator: Sketch 51.1 (57501) - http://www.bohemiancoding.com/sketch -->
    <title>logo-bg</title>
    <desc>Created with Sketch.</desc>
    <defs></defs>
    <g id="logo-bg" stroke="none" stroke-width="1" fill="none" fill-rule="evenodd">
        <g id="Group-2" transform="translate(10.000000, 35.000000)" fill-rule="nonzero">
            <polygon id="Shape" fill="#8DB251" points="240.249351 309.805714 228.716883 431.449714 252.031169 431.449714"></polygon>
            <path d="M240.124675,341.135429 C158.088312,474.551429 45.5064935,386.977714 45.5064935,386.977714 C39.7714286,379.316571 27.3662338,311.674286 27.3662338,311.674286 L1.62077922,215.380571 C26.5558442,196.321143 103.72987,189.656571 103.72987,189.656571 C103.72987,173.4 119.937662,139.828 119.937662,139.828 C167.625974,60.6628571 250.846753,2.79942857 250.846753,2.79942857 L251.781818,4.73028571 C251.781818,4.73028571 329.828571,96.1657143 360.249351,140.264 C360.249351,140.264 376.457143,173.586857 376.457143,190.092571 C376.457143,190.092571 453.755844,196.757143 478.566234,215.816571 L452.820779,312.110286 C452.820779,312.110286 440.353247,379.752571 434.680519,387.413714 C434.680519,387.413714 322.098701,474.987429 240,341.571429" id="Shape" stroke="#8DB352"></path>
            <g id="Group" fill="#8DB251">
                <path d="M308.696104,196.944 C308.696104,200.07435 306.156337,202.612 303.023377,202.612 C299.890416,202.612 297.350649,200.07435 297.350649,196.944 C297.350649,193.81365 299.890416,191.276 303.023377,191.276 C304.532986,191.259145 305.985688,191.850894 307.053209,192.917526 C308.12073,193.984158 308.712973,195.435649 308.696104,196.944" id="Shape"></path>
                <path d="M366.919481,232.197714 C366.919481,235.328064 364.379714,237.865714 361.246753,237.865714 C358.113792,237.865714 355.574026,235.328064 355.574026,232.197714 C355.574026,229.067364 358.113792,226.529714 361.246753,226.529714 C362.751254,226.529714 364.194134,227.126877 365.257977,228.189833 C366.32182,229.252789 366.919481,230.694467 366.919481,232.197714" id="Shape"></path>
                <path d="M333.506494,364.492571 C333.506494,367.622921 330.966727,370.160571 327.833766,370.160571 C324.700805,370.160571 322.161039,367.622921 322.161039,364.492571 C322.161039,361.362221 324.700805,358.824571 327.833766,358.824571 C330.966727,358.824571 333.506494,361.362221 333.506494,364.492571" id="Shape"></path>
                <path d="M246.919481,130.734286 C246.91948,133.864635 244.379713,136.402284 241.246753,136.402284 C238.113793,136.402284 235.574027,133.864635 235.574026,130.734286 C235.574025,128.709304 236.655241,126.838144 238.410389,125.825653 C240.165537,124.813162 242.327969,124.813162 244.083117,125.825653 C245.838265,126.838144 246.919481,128.709304 246.919481,130.734286" id="Shape"></path>
                <path d="M241.807792,237.429714 C241.807792,240.560064 239.268026,243.097714 236.135065,243.097714 C233.002104,243.097714 230.462338,240.560064 230.462338,237.429714 C230.462338,234.299364 233.002104,231.761714 236.135065,231.761714 C237.639566,231.761714 239.082446,232.358877 240.146289,233.421833 C241.210132,234.484789 241.807792,235.926467 241.807792,237.429714" id="Shape"></path>
                <path d="M169.496104,196.944 C169.496104,200.07435 172.03587,202.612 175.168831,202.612 C178.301792,202.612 180.841558,200.07435 180.841558,196.944 C180.841558,193.81365 178.301792,191.276 175.168831,191.276 C173.659222,191.259145 172.20652,191.850894 171.138999,192.917526 C170.071477,193.984158 169.479235,195.435649 169.496104,196.944" id="Shape"></path>
                <path d="M111.272727,232.197714 C111.272727,235.328064 113.812494,237.865714 116.945455,237.865714 C120.078415,237.865714 122.618182,235.328064 122.618182,232.197714 C122.618182,229.067364 120.078415,226.529714 116.945455,226.529714 C115.440954,226.529714 113.998073,227.126877 112.934231,228.189833 C111.870388,229.252789 111.272727,230.694467 111.272727,232.197714" id="Shape"></path>
                <path d="M184.768831,112.048571 C184.743556,114.346563 186.109531,116.432361 188.227157,117.329318 C190.344784,118.226276 192.794878,117.756841 194.430218,116.14082 C196.065557,114.524799 196.562427,112.082083 195.688174,109.956439 C194.813922,107.830796 192.741605,106.442996 190.441558,106.442857 C187.332781,106.44267 184.802994,108.942573 184.768831,112.048571" id="Shape"></path>
                <path d="M244.8,336.090286 C244.8,339.220636 242.260233,341.758286 239.127273,341.758286 C235.994312,341.758286 233.454545,339.220636 233.454545,336.090286 C233.454545,332.959936 235.994312,330.422286 239.127273,330.422286 C242.260233,330.422286 244.8,332.959936 244.8,336.090286" id="Shape"></path>
                <path d="M237.880519,336.277143 C226.535065,264.524 248.914286,4.97942857 249.163636,2.36342857 L251.657143,2.36342857 C251.657143,4.91714286 229.028571,263.963429 240.374026,335.654286 L237.880519,336.277143 Z" id="Shape"></path>
                <path d="M397.651948,310.366286 C397.651948,313.496636 395.112182,316.034286 391.979221,316.034286 C388.84626,316.034286 386.306494,313.496636 386.306494,310.366286 C386.306494,307.235936 388.84626,304.698286 391.979221,304.698286 C395.112182,304.698286 397.651948,307.235936 397.651948,310.366286" id="Shape"></path>
                <path d="M293.423377,112.048571 C293.448652,114.346563 292.082677,116.432361 289.96505,117.329318 C287.847424,118.226276 285.39733,117.756841 283.76199,116.14082 C282.126651,114.524799 281.629781,112.082083 282.504033,109.956439 C283.378286,107.830796 285.450602,106.442996 287.750649,106.442857 C289.249389,106.426217 290.69248,107.009464 291.758153,108.062548 C292.823827,109.115632 293.423469,110.550989 293.423377,112.048571" id="Shape"></path>
                <polygon id="Shape" points="453.880519 313.293714 390.046753 311.113714 391.231169 309.868 478.753247 214.570857 479.937662 215.629714 393.537662 309.681143 453.942857 311.674286"></polygon>
                <polygon id="Shape" points="391.106494 310.677714 360.685714 232.571429 362.181818 232.010857 392.54026 310.117143"></polygon>
                <polygon id="Shape" points="433.122078 387.974286 391.106494 310.802286 392.477922 310.054857 434.493506 387.226857"></polygon>
                <rect id="Rectangle-path" transform="translate(313.033370, 325.669942) rotate(-9.680000) translate(-313.033370, -325.669942) " x="238.415188" y="322.555656" width="149.236364" height="1.55714286"></rect>
                <polygon id="Shape" points="362.181818 232.509143 360.685714 232.010857 377.018182 189.096 378.514286 189.594286"></polygon>
                <polygon id="Shape" points="302.275325 197.068571 287.002597 112.235429 288.561039 111.924 303.833766 196.819429"></polygon>
                <rect id="Rectangle-path" transform="translate(271.288134, 56.548496) rotate(-18.810000) translate(-271.288134, -56.548496) " x="268.171251" y="-1.31493246" width="1.55844156" height="115.726857"></rect>
                <polygon id="Shape" points="241.496104 131.544 240.935065 130.049143 287.501299 111.363429 288.062338 112.796"></polygon>
                <polygon id="Shape" points="237.132468 237.741143 235.636364 237.118286 287.064935 111.799429 288.561039 112.36"></polygon>
                <polygon id="Shape" points="236.820779 238.114857 235.948052 236.744571 302.649351 196.258857 303.45974 197.629143"></polygon>
                <rect id="Rectangle-path" transform="translate(273.171174, 267.497072) rotate(-65.370000) translate(-273.171174, -267.497072) " x="196.527018" y="264.382786" width="153.288312" height="1.55714286"></rect>
                <polygon id="Shape" points="359.064935 141.385143 287.501299 112.796 288.062338 111.363429 359.625974 139.952571"></polygon>
                <polygon id="Shape" points="377.205195 189.905714 287.251948 112.671429 288.311688 111.488 378.264935 188.722286"></polygon>
                <polygon id="Shape" points="303.646753 197.504571 302.524675 196.383429 360.81039 140.388571 361.932468 141.509714"></polygon>
                <polygon id="Shape" points="303.148052 197.753714 303.023377 196.196571 377.703896 188.535429 377.828571 190.092571"></polygon>
                <polygon id="Shape" points="360.997403 232.945143 302.649351 197.629143 303.45974 196.258857 361.807792 231.574857"></polygon>
                <polygon id="Shape" points="239.625974 336.713143 238.628571 335.529714 360.935065 231.699429 361.932468 232.882857"></polygon>
                <polygon id="Shape" points="361.558442 233.069714 361.309091 231.512571 479.251948 214.321714 479.438961 215.878857"></polygon>
                <polygon id="Shape" points="239.688312 337.273714 238.566234 335.031429 478.753247 213.948 479.875325 216.190286"></polygon>
                <polygon id="Shape" points="327.646753 365.053143 238.877922 336.9 239.376623 335.405143 328.145455 363.558286"></polygon>
                <polygon id="Shape" points="328.394805 364.928571 327.397403 363.745143 391.293506 309.805714 392.290909 310.989143"></polygon>
                <polygon id="Shape" points="433.620779 388.410286 327.522078 365.115429 327.833766 363.558286 433.932468 386.853143"></polygon>
                <rect id="Rectangle-path" transform="translate(330.432489, 389.594892) rotate(-1.080000) translate(-330.432489, -389.594892) " x="327.315606" y="364.369177" width="1.55844156" height="50.4514286"></rect>
                <polygon id="Shape" points="328.831169 415.504571 328.457143 414.009714 433.620779 386.853143 433.994805 388.410286"></polygon>
                <rect id="Rectangle-path" transform="translate(285.358975, 373.585790) rotate(-48.680000) translate(-285.358975, -373.585790) " x="282.242091" y="314.07179" width="1.55844156" height="119.028"></rect>
                <path d="M80.7896104,310.366286 C80.7897493,312.664416 82.1787071,314.735006 84.3061231,315.60853 C86.4335391,316.482053 88.8782929,315.985597 90.4956615,314.351621 C92.1130301,312.717644 92.5828565,310.269591 91.685151,308.15373 C90.7874455,306.037868 88.6999081,304.673032 86.4,304.698286 C84.9011682,304.698193 83.4646147,305.297336 82.4106521,306.362121 C81.3566895,307.426906 80.7729567,308.868795 80.7896104,310.366286" id="Shape"></path>
                <path d="M144.685714,364.492571 C144.685714,367.622921 147.225481,370.160571 150.358442,370.160571 C153.491402,370.160571 156.031169,367.622921 156.031169,364.492571 C156.031169,361.362221 153.491402,358.824571 150.358442,358.824571 C148.853941,358.824571 147.41106,359.421734 146.347218,360.48469 C145.283375,361.547646 144.685714,362.989324 144.685714,364.492571" id="Shape"></path>
                <polygon id="Shape" points="26.3688312 313.106857 26.3064935 311.487429 84.7168831 309.681143 0 216.501714 1.18441558 215.505143 88.2077922 311.113714"></polygon>
                <polygon id="Shape" points="87.2103896 310.677714 85.7142857 310.117143 116.25974 231.948571 117.693506 232.509143"></polygon>
                <polygon id="Shape" points="45.1948052 387.974286 43.8233766 387.226857 85.7766234 310.054857 87.1480519 310.802286"></polygon>
                <polygon id="Shape" points="239.002597 336.9 86.3376623 311.176 86.587013 309.618857 239.251948 335.342857"></polygon>
                <polygon id="Shape" points="116.25974 232.446857 101.548052 189.407429 103.418182 190.030286 117.693506 231.948571"></polygon>
                <polygon id="Shape" points="175.979221 197.068571 174.420779 196.819429 189.693506 111.924 191.251948 112.235429"></polygon>
                <polygon id="Shape" points="191.127273 112.484571 189.755844 111.674857 249.787013 2.11428571 251.158442 2.86171429"></polygon>
                <polygon id="Shape" points="240.935065 131.544 191.750649 111.550286 192.311688 110.055429 241.496104 130.049143"></polygon>
                <polygon id="Shape" points="235.636364 237.741143 189.755844 112.36 191.18961 111.799429 237.132468 237.180571"></polygon>
                <rect id="Rectangle-path" transform="translate(205.143858, 215.107247) rotate(-57.910000) translate(-205.143858, -215.107247) " x="202.026975" y="176.708105" width="1.55844156" height="76.7982857"></rect>
                <rect id="Rectangle-path" transform="translate(209.287627, 265.764053) rotate(-24.650000) translate(-209.287627, -265.764053) " x="206.170744" y="189.183768" width="1.55844156" height="153.160571"></rect>
                <polygon id="Shape" points="119.18961 141.385143 118.628571 139.952571 190.192208 111.363429 190.753247 112.796"></polygon>
                <polygon id="Shape" points="103.231169 190.84 102.171429 189.656571 189.942857 111.488 191.002597 112.671429"></polygon>
                <polygon id="Shape" points="174.67013 197.504571 118.379221 141.260571 119.438961 140.139429 175.72987 196.383429"></polygon>
                <rect id="Rectangle-path" transform="translate(139.098048, 191.252587) rotate(-84.740000) translate(-139.098048, -191.252587) " x="135.981165" y="154.87773" width="1.55844156" height="72.7497143"></rect>
                <rect id="Rectangle-path" transform="translate(147.320768, 216.682729) rotate(-31.350000) translate(-147.320768, -216.682729) " x="113.284404" y="213.568443" width="68.0727273" height="1.55714286"></rect>
                <polygon id="Shape" points="238.628571 336.713143 116.509091 232.820571 117.506494 231.574857 239.625974 335.529714"></polygon>
                <rect id="Rectangle-path" transform="translate(59.130361, 221.794155) rotate(-82.070000) translate(-59.130361, -221.794155) " x="56.0134782" y="163.089869" width="1.55844156" height="117.408571"></rect>
                <polygon id="Shape" points="238.566234 337.273714 0 217.124571 1.18441558 214.882286 239.688312 335.031429"></polygon>
                <polygon id="Shape" points="150.607792 365.053143 150.109091 363.558286 238.877922 335.405143 239.376623 336.9"></polygon>
                <polygon id="Shape" points="149.85974 364.928571 85.9636364 310.989143 86.961039 309.805714 150.857143 363.745143"></polygon>
                <rect id="Rectangle-path" transform="translate(97.956924, 378.387933) rotate(-12.500000) translate(-97.956924, -378.387933) " x="43.7231579" y="375.273648" width="108.467532" height="1.55714286"></rect>
                <polygon id="Shape" points="150.420779 414.757143 148.862338 414.757143 149.61039 364.305714 151.168831 364.305714"></polygon>
                <rect id="Rectangle-path" transform="translate(97.667475, 398.917308) rotate(-75.530000) translate(-97.667475, -398.917308) " x="94.550592" y="344.666451" width="1.55844156" height="108.501714"></rect>
                <rect id="Rectangle-path" transform="translate(195.988398, 377.294706) rotate(-41.440000) translate(-195.988398, -377.294706) " x="136.393593" y="374.18042" width="119.18961" height="1.55714286"></rect>
            </g>
        </g>
    </g>
</svg>