<?xml version="1.0" encoding="UTF-8"?>
<svg width="50px" height="50px" viewBox="0 0 50 50" version="1.1" xmlns="http://www.w3.org/2000/svg" xmlns:xlink="http://www.w3.org/1999/xlink">
    <!-- Generator: Sketch 51.1 (57501) - http://www.bohemiancoding.com/sketch -->
    <title>target</title>
    <desc>Created with Sketch.</desc>
    <defs></defs>
    <g id="target" stroke="none" stroke-width="1" fill="none" fill-rule="evenodd">
        <rect fill="#73AA4F" x="0" y="0" width="50" height="50"></rect>
        <g id="Group-2" transform="translate(13.500000, 13.000000)" fill-rule="nonzero">
            <path d="M4.38589109,12.7153846 C4.38589109,16.4076923 7.33153465,19.4076923 10.9658911,19.4076923 C14.6002475,19.4076923 17.5458911,16.4076923 17.5458911,12.7153846 C17.5479567,11.7390499 17.3368139,10.7738518 16.9269802,9.88615385 L15.2191584,11.6215385 C15.3093652,11.9792548 15.3546917,12.3466499 15.3541089,12.7153846 C15.2978823,15.1050849 13.3090142,17.002596 10.8992292,16.9656333 C8.48944409,16.9286706 6.56068782,14.9710687 6.57899424,12.5807868 C6.59730065,10.1905049 8.55581795,8.26218906 10.9658911,8.26153846 C11.3300908,8.26185722 11.6928046,8.30760072 12.045495,8.39769231 L13.7533168,6.66461538 C12.8824787,6.24834294 11.9279383,6.03296208 10.9612376,6.03461538 C7.32688119,6.03461538 4.38123762,9.03461538 4.38123762,12.7153846 L4.38589109,12.7153846 Z" id="Shape" fill="#FFFFFF"></path>
            <path d="M20.105297,3.43615385 L20.105297,0 L17.0433168,3.10846154 L16.3615842,5.90769231 L11.7081188,10.6269231 C11.4692762,10.5379432 11.2163714,10.4918395 10.9612376,10.4907692 C10.0487295,10.4701308 9.21443411,10.9994224 8.85071919,11.8297191 C8.48700426,12.6600157 8.66626097,13.6260611 9.30418516,14.2735259 C9.94210936,14.9209906 10.9117333,15.1210079 11.7570444,14.7795101 C12.6023555,14.4380122 13.1551093,13.6229683 13.1553465,12.7176923 C13.1546699,12.4597567 13.1098242,12.2038088 13.0227228,11.9607692 L17.6761881,7.23923077 L20.4310396,6.54692308 L23.4930198,3.43846154 L20.105297,3.43615385 Z" id="Shape" fill="#FFFFFF"></path>
            <polygon id="Shape" fill="#000000" points="20.7940099 8.06769231 18.739505 8.58461538 20.7940099 8.06769231"></polygon>
            <path d="M20.7940099,8.07692308 L18.739505,8.59384615 C19.3990507,9.87241602 19.7420155,11.2884235 19.74,12.7246154 C19.74,17.6446154 15.8124752,21.6323077 10.9658911,21.6323077 C6.11930693,21.6323077 2.19178218,17.6446154 2.19178218,12.7246154 C2.19178218,7.80461538 6.12163366,3.81692308 10.9658911,3.81692308 C12.3872201,3.81617858 13.7864409,4.16589679 15.0376733,4.83461538 L15.544901,2.75769231 L15.5751485,2.63076923 C14.135398,1.95064305 12.5606064,1.59820924 10.9658911,1.59923077 C4.91638614,1.59923077 0,6.58615385 0,12.7338462 C0,18.8815385 4.90940594,23.8684615 10.9658911,23.8684615 C17.0223762,23.8684615 21.9341089,18.8838462 21.9341089,12.7338462 C21.9363016,11.1204448 21.5895768,9.52534227 20.9173267,8.05615385 L20.7940099,8.08615385 L20.7940099,8.07692308 Z" id="Shape" fill="#FFFFFF"></path>
        </g>
    </g>
</svg>