<?xml version="1.0" encoding="UTF-8"?>
<svg width="50px" height="50px" viewBox="0 0 50 50" version="1.1" xmlns="http://www.w3.org/2000/svg" xmlns:xlink="http://www.w3.org/1999/xlink">
    <!-- Generator: Sketch 51.1 (57501) - http://www.bohemiancoding.com/sketch -->
    <title>teach</title>
    <desc>Created with Sketch.</desc>
    <defs></defs>
    <g id="teach" stroke="none" stroke-width="1" fill="none" fill-rule="evenodd">
        <rect fill="#50E3C2" x="0" y="0" width="50" height="50"></rect>
        <path d="M21.0799693,26.1732907 C20.9827936,25.9156366 20.7812948,25.7062459 20.5209019,25.5923267 C20.2605089,25.4784076 19.9631424,25.4695501 19.6958451,25.5677512 C19.1509053,25.7725659 18.870277,26.3507775 19.0583902,26.8811749 C19.8028306,28.9024829 20.9729839,30.2180388 21.8244097,30.8235783 C22.062001,30.9794462 22.3560167,31.0352856 22.6378314,30.9780631 C22.9196462,30.9208406 23.1646001,30.7555635 23.3155194,30.5208085 C23.6342468,30.1156941 23.5272614,29.5101546 23.092633,29.1050401 C22.1367156,28.3352561 21.4345259,27.3169214 21.0710539,26.1732907 L21.0799693,26.1732907 Z" id="Shape" fill="#FFFFFF" fill-rule="nonzero"></path>
        <path d="M36.8997301,16.4521935 C37.162269,15.8543334 36.8917463,15.1581656 36.2926079,14.8898145 C32.5982552,13.1823341 28.2013884,14.3508469 25.8622985,17.6617772 C25.4990412,15.9759199 24.7699865,14.0531858 23.068012,13.2089972 C22.797446,13.0238595 22.4617978,12.9578344 22.1404899,13.026545 C21.8191821,13.0952556 21.5407646,13.2925966 21.371118,13.5718723 C21.2038357,13.8574903 21.1610337,14.1983764 21.2525755,14.5159753 C21.3441174,14.8335743 21.5621062,15.1004887 21.8563077,15.2552096 C22.9460795,15.8574815 23.4312692,17.4198605 23.5532017,18.7453626 C21.8563077,17.7827356 20.034941,17.5408188 18.338047,18.1430907 C14.456529,19.5870313 13.0035001,23.687016 14.700394,28.6110297 C15.9120983,32.0986627 18.338047,35.2259405 20.8859282,36.4229244 C22.4608897,37.1436347 23.916459,37.1436347 24.8868385,36.674921 C26.2017773,37.1240715 27.6431233,37.0333462 28.8902889,36.4229244 C31.4305494,35.2183806 33.8615786,32.2120611 35.0758231,28.6110297 C36.2875274,24.9999183 35.9242701,21.8726405 34.1054436,19.826428 C35.3468773,18.9963241 36.3178193,17.8256164 36.8997301,16.4572334 L36.8997301,16.4521935 Z M35.4885915,15.2920922 C33.5746571,18.6598734 30.391024,20.2525663 27.3030575,19.3871124 C29.2522571,16.0838632 32.4053862,14.5064307 35.4885915,15.2920922 Z M33.7006871,27.9564308 C32.6193567,31.2448321 30.3147891,34.1229006 28.146452,35.2161649 C27.3319066,35.6293672 26.5201992,35.7642318 25.8418844,35.5031109 C24.4880928,34.9550441 24.8939464,35.0927782 23.8097779,35.5031109 C23.131463,35.7757097 22.3197557,35.640845 21.5080484,35.2161649 C19.3397113,34.1229006 17.1713743,31.2448321 15.9509751,27.9564308 C14.5971835,23.7096298 15.5451215,20.5589626 18.5251659,19.4628289 C20.1514187,18.7770279 22.3197557,19.600563 23.9460085,21.5173623 C24.2030192,21.8124725 24.5731484,21.9815774 24.9620617,21.9815774 C25.350975,21.9815774 25.7211043,21.8124725 25.978115,21.5173623 C26.3839686,21.1070295 26.7926604,20.6966967 27.0622835,20.4212285 C28.9411344,20.8523069 30.8964539,20.8049796 32.7527492,20.2834945 C34.5152326,21.6550964 34.9210863,24.5331649 33.7006871,27.9564308 Z" id="Shape" fill="#FFFFFF" fill-rule="nonzero"></path>
    </g>
</svg>